<svg width="121" height="20" viewBox="0 0 121 20" fill="none" xmlns="http://www.w3.org/2000/svg">
<path fill-rule="evenodd" clip-rule="evenodd" d="M120.195 2.45801V17.7122H115.392V8.40106L110.894 13.3352H110.2L105.702 8.40106V17.7122H100.899V2.45801H105.113L110.532 8.26817L116.037 2.45801H120.195ZM11.6524 12.1048C10.2403 11.9589 8.17452 12.1395 6.91411 12.5855L9.97865 6.12062L15.9288 17.7152H20.4713L12.6336 2.44035H7.29843L0.0246582 17.7174H4.56273C5.38767 15.4473 9.00001 13.7365 12.3496 13.4939L11.6524 12.1048ZM36.7948 14.7262V17.6944H23.5012V2.44547H28.1942V14.7263L36.7948 14.7262ZM71.8942 2.46629V5.42087H65.624V17.6913H60.8196V5.42098H54.5563V2.46629H71.8942ZM51.9075 5.62134C46.5117 4.06137 43.029 5.13078 43.029 6.36677C43.029 9.15946 53.3623 7.57103 53.3443 13.0305C53.3287 17.1168 49.0729 18.223 44.7164 18.223C42.8923 18.223 40.6132 17.9952 38.873 17.5435L39.325 14.2597C40.6307 14.7673 42.5545 15.1089 44.7165 15.1089C46.6008 15.1089 48.8437 14.8074 48.962 13.6159C49.2681 10.5036 38.6772 12.4454 38.6772 6.75453C38.6772 2.96612 43.1571 1.78998 47.0885 1.78998C48.9379 1.78998 51.3713 2.29656 52.2191 2.60539L51.9075 5.62134Z" fill="#FEFEFF"/>
<path fill-rule="evenodd" clip-rule="evenodd" d="M96.3893 14.4398C98.1773 11.8442 97.9118 8.73847 95.9739 6.30497L97.1799 5.28559C99.2322 8.05179 99.2555 11.5297 97.0443 14.4241L96.3893 14.4398ZM79.1969 11.0646C79.2223 8.36117 81.9786 6.14462 85.4501 6.07147C88.9946 5.99669 91.9397 8.18664 92.0288 10.9633C92.1181 13.7395 89.321 16.0506 85.7757 16.1227C84.0103 16.1595 82.3889 15.6343 81.2016 14.7524L80.2719 15.508C76.181 12.4662 76.019 7.39663 79.9051 4.18544C83.0282 1.60968 87.8158 1.016 91.6968 2.45606L91.7479 2.50228L92.2433 2.06198C87.3088 -0.239282 80.7985 0.410217 76.6384 3.83562C71.7332 7.87585 71.9704 14.2599 77.128 18.0919L78.0569 17.3293C80.0942 18.8315 82.4728 19.5743 85.2454 19.5193C90.8189 19.3999 95.22 15.7709 95.0791 11.4021C95.0088 9.21834 93.8161 7.26396 91.9397 5.87056L92.5967 5.33073C89.3537 2.91795 83.985 2.96624 80.8475 5.55289C78.9915 7.08583 78.117 9.14923 78.5332 11.0844L79.1969 11.0646Z" fill="#FEFEFF"/>
</svg>
