<svg width="27" height="36" viewBox="0 0 27 36" fill="none" xmlns="http://www.w3.org/2000/svg">
<path d="M11.8594 34.4863C10.6289 32.9824 9.10221 30.9544 7.2793 28.4023C5.50195 25.8958 3.92969 23.2982 2.5625 20.6094C1.19531 17.9206 0.466146 15.5508 0.375 13.5C0.466146 9.76302 1.74219 6.66406 4.20312 4.20312C6.66406 1.74219 9.76302 0.466146 13.5 0.375C17.237 0.466146 20.3359 1.74219 22.7969 4.20312C25.2578 6.66406 26.5339 9.76302 26.625 13.5C26.5339 15.5508 25.8047 17.9206 24.4375 20.6094C23.0247 23.2982 21.4297 25.8958 19.6523 28.4023C17.875 30.9544 16.3711 32.9824 15.1406 34.4863C14.6849 35.0332 14.138 35.3066 13.5 35.3066C12.862 35.3066 12.3151 35.0332 11.8594 34.4863ZM13.5 17.875C14.7305 17.8294 15.7559 17.3965 16.5762 16.5762C17.3965 15.7559 17.8294 14.7305 17.875 13.5C17.8294 12.2695 17.3965 11.2441 16.5762 10.4238C15.7559 9.60352 14.7305 9.17057 13.5 9.125C12.2695 9.17057 11.2441 9.60352 10.4238 10.4238C9.60352 11.2441 9.17057 12.2695 9.125 13.5C9.17057 14.7305 9.60352 15.7559 10.4238 16.5762C11.2441 17.3965 12.2695 17.8294 13.5 17.875Z" fill="#22487F"/>
</svg>
