<svg width="108" height="18" viewBox="0 0 108 18" fill="none" xmlns="http://www.w3.org/2000/svg">
<g clip-path="url(#clip0_37_718)">
<path fill-rule="evenodd" clip-rule="evenodd" d="M97.9851 8.70544L91.7573 17.3721H95.2987L99.8166 11.517L104.091 17.3721H108L101.649 8.70544L108 0.274414H104.091L99.8166 6.12949L95.2987 0.274414H91.7573L97.9851 8.70544ZM85.4067 4.84214L87.2382 9.75962H83.5739L85.4067 4.84214ZM84.0628 0.274414L76.3696 17.3721H80.0326L82.2314 13.0375H88.3388L90.5364 17.3709L93.0961 14.0917L86.2616 0.274414H84.0628ZM55.8522 17.3721H59.272V4.60897L64.1559 17.3721H66.7157L71.2348 4.60897V17.3721H74.7762V0.274414H70.2583L65.1338 13.2732L60.3701 0.274414H55.8522V17.3721ZM45.1014 3.31915H46.9329L48.3983 3.44188L49.4977 3.91068L50.1082 4.61387L50.3527 5.66683L50.1082 6.83883L49.4977 7.5408L48.5238 8.00592L47.1812 8.12864H45.1053L45.1014 3.31915ZM46.6923 0.274414H41.5626V17.3721H45.1053V10.6972L49.8676 17.3721H53.8979L49.2571 10.9304L50.2337 10.5831L51.095 10.1106L51.9499 9.40864L52.8049 8.70544L53.2874 8.00592L53.6547 7.18368L53.7827 6.36389L53.9043 5.6607L53.7827 4.84214L53.6547 3.90454L53.2887 3.08475L52.7998 2.26497L52.3121 1.91398L51.7004 1.3286L50.967 0.859799L50.1121 0.508814L49.3787 0.386091L48.6466 0.274414L46.6923 0.274414ZM28.8626 0.274414V17.3721H38.6317V14.0929H32.2811V10.2284H38.3886V7.41808H32.2811V3.31915H38.8762V0.274414H28.8626ZM12.2526 0.274414V17.3721H15.7953V9.99402H22.1446V17.3721H25.5644V0.274414H22.1446V7.18368H15.7953V0.274414H12.2526ZM0.284668 3.31915H4.07049V17.3721H7.49026V3.31915H10.6656V0.274414H0.284668V3.31915Z" fill="#FEFEFF"/>
</g>
<defs>
<clipPath id="clip0_37_718">
<rect width="107.715" height="17.0977" fill="white" transform="translate(0.284668 0.274414)"/>
</clipPath>
</defs>
</svg>
