<svg width="111" height="18" viewBox="0 0 111 18" fill="none" xmlns="http://www.w3.org/2000/svg">
<g clip-path="url(#clip0_37_672)">
<path d="M28.3923 17.1902C29.9988 16.7168 30.99 15.6601 31.4086 14.0471C31.6833 12.9886 31.726 11.9056 31.7488 10.8229C31.7824 9.24406 31.7936 7.66475 31.6703 6.08802C31.6143 5.37102 31.4979 4.66565 31.262 3.98356C30.7451 2.48876 29.6599 1.63809 28.1659 1.2466C27.3847 1.04181 26.5875 0.95342 25.7847 0.899095C25.72 0.894784 25.6402 0.937468 25.5906 0.856842H25.2457C25.156 0.946953 25.047 0.881418 24.9474 0.893921C24.8603 0.895646 24.7736 0.896939 24.6865 0.898664C24.5283 0.880555 24.3627 0.946522 24.211 0.856842H23.9523C23.8005 0.946522 23.6349 0.880555 23.4767 0.898233C23.3767 0.883142 23.2667 0.940917 23.1762 0.856842H22.9175C22.817 0.916341 22.7162 0.936605 22.6157 0.856842H22.5295C22.5066 0.875813 22.4816 0.880555 22.4562 0.880987C22.2557 0.937468 22.0461 0.920222 21.8418 0.939623C20.9747 1.02197 20.1193 1.15649 19.3036 1.47468C17.923 2.01276 17.1211 3.04667 16.7537 4.45438C16.4847 5.48441 16.4399 6.53858 16.414 7.59275C16.3743 9.21474 16.367 10.8376 16.495 12.4574C16.5511 13.1671 16.671 13.8643 16.9072 14.5395C17.4151 15.9899 18.4641 16.8328 19.9137 17.2325C20.8682 17.4955 21.8465 17.5787 22.8295 17.6265C22.9158 17.6265 23.002 17.6265 23.0878 17.627C23.174 17.627 23.2607 17.6261 23.3469 17.6261C23.5047 17.6261 23.663 17.627 23.8208 17.627C23.9945 17.627 24.1683 17.627 24.342 17.627C24.5003 17.627 24.6581 17.627 24.8163 17.627C24.9301 17.6421 25.0534 17.5679 25.1591 17.6628H25.2453C25.5264 17.5765 25.8192 17.6063 26.1059 17.5817C26.8794 17.5149 27.6447 17.4114 28.3918 17.1911L28.3923 17.1902ZM22.8024 13.76C21.8198 13.5918 21.3365 13.049 21.1515 12.0082C20.9851 11.07 21.0079 10.1206 21.0079 9.17422C21.0079 8.27785 20.9877 7.37846 21.1528 6.49115C21.3037 5.67972 21.6663 5.03084 22.5329 4.79887C22.8037 4.72644 23.0809 4.68936 23.3607 4.67212C24.0359 4.63029 24.7102 4.62857 25.3794 4.74024C26.2732 4.88899 26.769 5.44647 26.9682 6.30532C27.0941 6.84728 27.1204 7.39873 27.1359 7.9506C27.1484 8.38822 27.1385 8.82628 27.1385 9.2639C27.1385 10.1672 27.1678 11.073 27.0139 11.9694C26.9785 12.1742 26.9225 12.3738 26.8513 12.5695C26.6224 13.2025 26.1774 13.5961 25.5221 13.7285C24.6197 13.9104 23.7052 13.9147 22.8024 13.76Z" fill="#FEFEFF"/>
<path d="M45.5923 7.84023C44.445 7.55481 43.2676 7.48927 42.0931 7.40649C41.4774 7.36338 40.8596 7.33794 40.246 7.27327C39.5243 7.19695 39.1341 6.84427 39.0134 6.21435C38.8297 5.25763 39.1901 4.63892 40.0917 4.45482C40.9359 4.28279 41.7939 4.28839 42.6389 4.45611C43.396 4.60615 43.694 4.95797 43.7957 5.72327C43.8117 5.84399 43.8276 5.96644 43.8233 6.08716C43.819 6.21134 43.8634 6.24238 43.9841 6.24195C45.3345 6.23807 46.6849 6.2385 48.0352 6.24109C48.14 6.24109 48.1866 6.2247 48.1866 6.10269C48.1857 5.34817 48.1715 4.59408 48.0046 3.85422C47.6847 2.434 46.8388 1.52255 45.4 1.19401C44.5714 1.00473 43.7276 0.937903 42.8812 0.893063C42.7782 0.893925 42.6704 0.93316 42.5764 0.856415H42.3608C42.2556 0.947819 42.1315 0.877972 42.0181 0.897374C41.8594 0.880559 41.6943 0.945663 41.5421 0.856415H41.4558C41.3037 0.945663 41.1381 0.880559 40.9794 0.897374C40.8518 0.876248 40.7138 0.949544 40.5935 0.856415H40.0762C40.0581 0.871505 40.0382 0.87711 40.018 0.879266C39.8356 0.941352 39.6411 0.916776 39.4536 0.935316C38.7538 1.00344 38.0441 1.04138 37.3767 1.27075C35.9819 1.74976 35.0166 2.65605 34.6803 4.13792C34.4035 5.35895 34.3901 6.58428 34.6557 7.80876C34.9769 9.28805 35.9617 10.1124 37.3629 10.5108C38.2873 10.7734 39.2419 10.8251 40.1934 10.8975C40.9876 10.9583 41.7865 10.9566 42.5773 11.0661C42.648 11.076 42.7187 11.0903 42.7885 11.1049C43.8406 11.3278 44.3036 12.2121 43.8914 13.2111C43.6836 13.7156 43.2525 13.9165 42.7601 13.9919C41.8749 14.1277 40.9833 14.1204 40.099 13.9889C39.291 13.8686 38.875 13.3698 38.8262 12.5286C38.8073 12.2001 38.6315 12.0358 38.2989 12.0358C37.0853 12.0358 35.8711 12.0397 34.6574 12.0315C34.4776 12.0302 34.4289 12.0789 34.4337 12.2574C34.4531 13.0033 34.4578 13.7483 34.5919 14.4869C34.8635 15.9856 35.7918 16.85 37.2224 17.2277C38.1985 17.4856 39.2018 17.5584 40.2051 17.6184C40.2766 17.6227 40.3637 17.5778 40.4207 17.6619H40.55C40.6556 17.5688 40.7789 17.6399 40.8928 17.6261C40.9937 17.6261 41.0941 17.6253 41.195 17.6248C41.3399 17.6253 41.4843 17.6257 41.6292 17.6261C41.7865 17.6382 41.95 17.5709 42.1017 17.6615H42.4898C42.5074 17.6028 42.5574 17.6209 42.5967 17.6192C43.1421 17.5977 43.6858 17.552 44.2277 17.4881C45.1107 17.3847 45.9597 17.1829 46.7353 16.7181C47.5153 16.2503 48.062 15.6062 48.3151 14.7314C48.6936 13.4228 48.7057 12.0918 48.4457 10.7678C48.1353 9.18802 47.1419 8.22482 45.5919 7.83894L45.5923 7.84023Z" fill="#FEFEFF"/>
<path d="M110.564 17.0656C108.973 11.8305 107.383 6.59505 105.799 1.35741C105.75 1.19745 105.689 1.14873 105.523 1.14916C103.41 1.1552 101.298 1.15606 99.1855 1.14787C98.9971 1.147 98.9333 1.21168 98.882 1.38112C97.4682 6.05654 96.0489 10.7302 94.6308 15.4044C94.4359 16.0472 94.2419 16.6909 94.0461 17.3385C94.0819 17.3471 94.1013 17.3562 94.1212 17.3562C95.6371 17.3571 97.153 17.3558 98.669 17.3601C98.7914 17.3601 98.8225 17.3071 98.8518 17.204C99.1044 16.3154 99.3657 15.4289 99.6179 14.5403C99.6563 14.4045 99.7063 14.3468 99.8633 14.3476C101.516 14.3549 103.168 14.3545 104.821 14.3476C104.975 14.3472 105.026 14.3989 105.066 14.5399C105.312 15.4083 105.572 16.2723 105.817 17.1411C105.862 17.304 105.921 17.3635 106.103 17.3627C107.619 17.354 109.135 17.3597 110.651 17.3605V17.2743C110.581 17.2217 110.585 17.1372 110.564 17.0652L110.564 17.0656ZM103.809 10.7561C102.833 10.7514 101.857 10.7522 100.881 10.7553C100.763 10.7553 100.708 10.7406 100.748 10.6009C101.267 8.82196 101.781 7.04216 102.298 5.26279C102.307 5.23045 102.329 5.20157 102.357 5.14767C102.669 6.22297 102.974 7.27283 103.278 8.32312C103.497 9.07893 103.71 9.83646 103.936 10.5901C103.98 10.7358 103.945 10.7565 103.809 10.7557V10.7561Z" fill="#FEFEFF"/>
<path d="M24.3423 17.6266C24.1686 17.6266 23.9948 17.6266 23.821 17.6266C23.8219 17.6382 23.8223 17.6503 23.8232 17.6619H24.3406C24.341 17.6503 24.3419 17.6382 24.3427 17.6266H24.3423Z" fill="#FE6464"/>
<path d="M23.4766 0.898233C23.6348 0.880555 23.8004 0.946091 23.9521 0.856842H23.4779C23.4779 0.870639 23.4779 0.884436 23.4766 0.898233Z" fill="#FE1919"/>
<path d="M24.6865 0.898664C24.6856 0.884867 24.6852 0.87107 24.6852 0.856842H24.2109C24.3627 0.946522 24.5283 0.880555 24.6865 0.898664Z" fill="#FE1A1A"/>
<path d="M40.9792 0.897802C41.1379 0.881418 41.3035 0.946091 41.4557 0.856842H40.9814C40.9814 0.870639 40.981 0.884005 40.9792 0.897802Z" fill="#FE1B1B"/>
<path d="M42.0184 0.897802C42.0171 0.884005 42.0163 0.870639 42.0163 0.856842H41.542C41.6942 0.946091 41.8598 0.880987 42.018 0.897802H42.0184Z" fill="#FE1919"/>
<path d="M23.8213 17.627C23.6634 17.627 23.5052 17.6261 23.3474 17.6261C23.3483 17.6382 23.3491 17.6502 23.3491 17.6623H23.8234C23.823 17.6507 23.8221 17.6386 23.8213 17.627Z" fill="#FE7F7F"/>
<path d="M24.8168 17.6265C24.6585 17.6265 24.5007 17.6265 24.3425 17.6265C24.3416 17.6382 24.3412 17.6502 24.3403 17.6619H24.8146C24.815 17.6498 24.8159 17.6382 24.8168 17.6261V17.6265Z" fill="#FE7F7F"/>
<path d="M41.6299 17.6265C41.629 17.6382 41.6286 17.6503 41.6282 17.6619H42.1024C41.9507 17.5709 41.7873 17.6382 41.6299 17.6265Z" fill="#FE7C7C"/>
<path d="M41.63 17.6265C41.4851 17.6261 41.3407 17.6257 41.1958 17.6252C41.1967 17.6377 41.1975 17.6498 41.1971 17.6623H41.6282C41.6282 17.6503 41.6291 17.6386 41.63 17.627V17.6265Z" fill="#FE6666"/>
<path d="M40.9794 0.897802C40.9811 0.884436 40.9815 0.870639 40.9815 0.856842H40.5935C40.7138 0.949971 40.8513 0.876675 40.9794 0.897802Z" fill="#FE3D3D"/>
<path d="M42.0185 0.897802C42.1319 0.877969 42.2565 0.947815 42.3613 0.856842H42.0164C42.0164 0.870639 42.0168 0.884436 42.0185 0.897802Z" fill="#FE3939"/>
<path d="M24.8166 17.6266C24.8157 17.6386 24.8149 17.6503 24.8145 17.6623H25.1594C25.0537 17.5675 24.9304 17.6416 24.8166 17.6266Z" fill="#FEA4A4"/>
<path d="M40.8935 17.6265C40.7793 17.6403 40.6564 17.5692 40.5508 17.6623H40.8957C40.8957 17.6502 40.8948 17.6386 40.8935 17.6265Z" fill="#FEA3A3"/>
<path d="M22.9178 0.856842H22.616C22.7164 0.936605 22.8173 0.916341 22.9178 0.856842Z" fill="#FE9494"/>
<path d="M23.4768 0.898233C23.4776 0.884436 23.4781 0.870639 23.4781 0.856842H23.1763C23.2668 0.940917 23.3768 0.883574 23.4768 0.898233Z" fill="#FE3232"/>
<path d="M24.9473 0.893921C25.0469 0.881418 25.156 0.947384 25.2457 0.856842H24.9438C24.9447 0.869345 24.9456 0.881418 24.9473 0.893921Z" fill="#FE5353"/>
<path d="M42.8815 0.89349C42.8798 0.881418 42.8785 0.869345 42.8785 0.856842H42.5767C42.6707 0.933587 42.7784 0.894352 42.8815 0.89349Z" fill="#FEA9A9"/>
<path d="M41.1958 17.6252C41.0949 17.6252 40.9944 17.6261 40.8936 17.6265C40.8948 17.6386 40.8953 17.6503 40.8957 17.6623H41.1975C41.1975 17.6498 41.1971 17.6377 41.1962 17.6252H41.1958Z" fill="#FE7F7F"/>
<path d="M24.6866 0.898664C24.7737 0.896939 24.8604 0.895646 24.9474 0.893921C24.9457 0.881849 24.9449 0.869345 24.944 0.856842H24.6853C24.6853 0.870639 24.6853 0.884436 24.6866 0.898664Z" fill="#FE3333"/>
<path d="M23.0881 17.627C23.0019 17.627 22.9156 17.627 22.8298 17.6266C22.8307 17.6386 22.8311 17.6503 22.8316 17.6623H23.0903C23.0894 17.6507 23.089 17.6386 23.0881 17.627Z" fill="#FEC9C9"/>
<path d="M23.3473 17.6257C23.261 17.6257 23.1744 17.6265 23.0881 17.6265C23.089 17.6382 23.0894 17.6502 23.0903 17.6619H23.349C23.349 17.6498 23.3485 17.6377 23.3473 17.6257Z" fill="#FE9D9D"/>
<path d="M91.0758 9.31693C90.7261 9.13282 90.3558 9.00219 89.9695 8.89871C90.0523 8.81938 90.1583 8.81679 90.2519 8.78747C91.491 8.40159 92.2865 7.61732 92.4835 6.30058C92.5874 5.60685 92.5749 4.9114 92.4533 4.22113C92.2197 2.89533 91.4962 1.97784 90.1997 1.53936C89.3736 1.25997 88.5186 1.16425 87.6555 1.1608C84.7823 1.14916 81.9086 1.15434 79.035 1.14701C78.8677 1.14657 78.8371 1.19702 78.8371 1.35267C78.841 6.62265 78.8414 11.8931 78.8367 17.1631C78.8367 17.3303 78.8863 17.3614 79.0423 17.361C81.8944 17.3562 84.7461 17.3597 87.5981 17.3562C88.4117 17.3549 89.2184 17.2816 90.0048 17.057C91.4544 16.6431 92.4327 15.7614 92.7409 14.2454C92.9276 13.3279 92.9112 12.4044 92.7181 11.4878C92.512 10.5086 91.9636 9.78387 91.0767 9.31736L91.0758 9.31693ZM83.5962 4.85837C84.1278 4.85967 84.6594 4.8588 85.191 4.85923C85.6722 4.85923 86.1538 4.85708 86.6349 4.8601C87.1118 4.86311 87.552 4.97565 87.7762 5.44086C88.0198 5.94617 88.0254 6.47218 87.7275 6.96456C87.5141 7.31724 87.1614 7.48108 86.7643 7.48711C85.6942 7.50393 84.624 7.49487 83.5535 7.50005C83.4487 7.50048 83.4185 7.46512 83.419 7.36337C83.4224 6.5735 83.4241 5.78406 83.4177 4.99419C83.4164 4.84458 83.4996 4.85837 83.5962 4.85837ZM88.1302 12.4493C88.025 13.1943 87.5705 13.616 86.7621 13.6392C85.6933 13.6698 84.6227 13.6487 83.5531 13.6535C83.447 13.6539 83.4185 13.6151 83.419 13.5159C83.4215 12.626 83.4228 11.7361 83.4177 10.8467C83.4168 10.7164 83.4694 10.6927 83.5841 10.694C84.1511 10.6983 84.7185 10.6962 85.3837 10.6962C85.8455 10.7104 86.4056 10.6725 86.9648 10.7203C87.7176 10.7846 88.0961 11.1627 88.1401 11.9129C88.1504 12.0914 88.1547 12.2738 88.1302 12.4497V12.4493Z" fill="#FEFEFF"/>
<path d="M66.1236 9.26475C66.1236 6.62954 66.1219 3.99433 66.1275 1.3587C66.1275 1.18925 66.084 1.147 65.9158 1.14786C64.5366 1.15476 63.1569 1.15562 61.7776 1.14743C61.5926 1.14614 61.5409 1.18494 61.5418 1.37853C61.5504 3.20231 61.5439 5.02608 61.5517 6.85029C61.5526 7.03526 61.5004 7.06932 61.3266 7.06846C59.7029 7.06156 58.0792 7.06026 56.4559 7.06932C56.2623 7.07018 56.2239 7.01844 56.2244 6.83348C56.2317 5.0097 56.2265 3.18592 56.2326 1.36171C56.233 1.1927 56.1899 1.147 56.0196 1.14786C54.6256 1.15519 53.2322 1.15476 51.8382 1.14786C51.6722 1.147 51.6382 1.19529 51.6386 1.35309C51.6429 6.62351 51.6429 11.8944 51.6382 17.1648C51.6382 17.3346 51.6921 17.3622 51.846 17.3614C53.2253 17.3553 54.6049 17.3545 55.9842 17.3622C56.1743 17.3635 56.2356 17.3243 56.2347 17.1199C56.2261 15.1884 56.2321 13.2568 56.2248 11.3252C56.2239 11.1429 56.2727 11.1036 56.4494 11.1045C58.08 11.1118 59.7111 11.1114 61.3417 11.1045C61.512 11.1036 61.5517 11.1489 61.5513 11.3157C61.5452 13.2546 61.5513 15.1931 61.5422 17.132C61.5413 17.3286 61.5965 17.3631 61.7793 17.3622C63.1513 17.354 64.5236 17.3532 65.896 17.3631C66.0891 17.3644 66.1288 17.3135 66.1284 17.1273C66.1219 14.5063 66.1241 11.8853 66.1241 9.26432L66.1236 9.26475Z" fill="#FEFEFF"/>
<path d="M74.7654 1.35914C74.7654 1.18667 74.7166 1.14744 74.5502 1.1483C73.1641 1.15477 71.7779 1.15736 70.3917 1.14658C70.1831 1.14485 70.1533 1.21384 70.1538 1.39751C70.1594 4.0103 70.1576 6.62352 70.1576 9.2363C70.1576 11.8491 70.1598 14.5054 70.1533 17.1398C70.1533 17.3191 70.1973 17.3635 70.3767 17.3627C71.7628 17.3545 73.149 17.3553 74.5351 17.3622C74.7059 17.3631 74.7662 17.3329 74.7658 17.1449C74.7602 11.8832 74.7606 6.62136 74.7654 1.35957V1.35914Z" fill="#FEFEFF"/>
<path d="M0.321964 4.91099C0.32024 5.12268 0.384913 5.17097 0.587986 5.16968C2.03106 5.16106 3.47412 5.16451 4.91762 5.16709C4.99566 5.16709 5.09354 5.12096 5.14915 5.2253C5.14614 5.26108 5.14053 5.29644 5.14053 5.33222C5.14053 9.28202 5.14096 13.2318 5.13622 17.1816C5.13622 17.3403 5.18753 17.3657 5.33067 17.3653C6.80349 17.3601 8.27674 17.3579 9.74956 17.367C9.9453 17.3683 9.99359 17.3191 9.99316 17.1234C9.98712 13.2456 9.98842 9.36739 9.98842 5.48959C9.98842 5.29673 10.0813 5.20029 10.2669 5.20029C11.704 5.20029 13.141 5.19598 14.578 5.20503C14.7841 5.20633 14.857 5.17227 14.854 4.9416C14.8398 3.76412 14.8415 2.58621 14.8527 1.4083C14.8548 1.19962 14.8031 1.15176 14.5957 1.15219C9.91124 1.15866 5.22633 1.15737 0.541852 1.15737C0.470281 1.15737 0.39871 1.16211 0.326707 1.1647C0.326707 2.41332 0.33145 3.66194 0.321533 4.91056L0.321964 4.91099Z" fill="#FEFEFF"/>
</g>
<defs>
<clipPath id="clip0_37_672">
<rect width="110.329" height="16.8055" fill="white" transform="translate(0.322021 0.856842)"/>
</clipPath>
</defs>
</svg>
