<svg width="99" height="25" viewBox="0 0 99 25" fill="none" xmlns="http://www.w3.org/2000/svg">
<g clip-path="url(#clip0_37_706)">
<path d="M48.9417 12.7644C48.9417 12.5917 48.9344 12.4195 48.9304 12.2468C48.9263 12.1325 48.9218 12.0181 48.9177 11.9033C48.9118 11.8907 48.9082 11.878 48.9055 11.8649C48.8856 11.798 48.8802 11.7293 48.8865 11.6592C48.7894 11.0364 48.7026 10.4113 48.4675 9.81871C48.1335 8.97483 47.5943 8.32351 46.7567 7.93208C46.1366 7.6419 45.4735 7.56234 44.8068 7.48777C44.6956 7.48415 44.5844 7.48053 44.4728 7.47692C44.292 7.48008 44.1108 7.48912 43.9309 7.45929H43.925C43.8174 7.50901 43.703 7.49183 43.5905 7.49048C43.5006 7.49409 43.4106 7.49771 43.3207 7.50133C43.3071 7.51082 43.2926 7.51579 43.2782 7.51941C43.219 7.53929 43.1566 7.53748 43.0938 7.53342C42.2653 7.64687 41.4386 7.78382 40.6476 8.05818C40.267 8.19017 39.965 8.19695 39.6003 7.97095C39.0344 7.6202 38.3641 7.56325 37.7114 7.49093C37.2603 7.49138 36.8092 7.49183 36.3586 7.49229C36.242 7.49635 36.1258 7.50042 36.0092 7.50449C35.9947 7.51127 35.9798 7.51534 35.9649 7.5185C35.8871 7.53974 35.8071 7.54065 35.7262 7.53613C35.3628 7.58449 34.9994 7.62879 34.6369 7.68212C33.5291 7.84575 32.4479 8.1183 31.3839 8.46679C31.2212 8.52012 31.2027 8.59787 31.2027 8.73934C31.2054 12.3237 31.2067 15.908 31.2 19.4923C31.2 19.6849 31.2682 19.7057 31.4296 19.7048C32.5442 19.6989 33.6588 19.7016 34.7734 19.7011C34.7766 19.6112 34.782 19.5212 34.782 19.4308C34.7825 16.6628 34.782 13.8944 34.7847 11.1263C34.7847 11.0508 34.7418 10.9623 34.8204 10.8967C35.1359 10.7566 35.4749 10.7399 35.8112 10.7078C35.8266 10.7019 35.8419 10.6978 35.8573 10.6942C35.9911 10.6599 36.1285 10.6725 36.265 10.673C36.3111 10.673 36.3572 10.6721 36.4033 10.6721C36.5421 10.6743 36.6831 10.6513 36.8178 10.7055C36.9331 10.7204 37.0515 10.7231 37.1627 10.753C37.4181 10.8226 37.6734 10.9293 37.838 11.1313C38.148 11.5119 38.233 11.9815 38.2583 12.4615C38.304 12.5818 38.2936 12.7065 38.2922 12.8308C38.2976 13.0636 38.3071 13.2968 38.3071 13.5296C38.3085 15.5157 38.3094 17.5017 38.3044 19.4878C38.3044 19.6464 38.3293 19.7075 38.5087 19.7061C39.5696 19.6966 40.6304 19.698 41.6912 19.7052C41.8449 19.7061 41.8747 19.6564 41.8738 19.5149C41.8675 18.7551 41.8711 17.9953 41.8707 17.2355C41.8707 15.6635 41.8698 14.0914 41.8698 12.5194C41.8535 12.4837 41.8472 12.4471 41.8458 12.41C41.8336 12.3264 41.8331 12.2414 41.8354 12.1564C41.8318 12.0814 41.8286 12.0068 41.825 11.9318C41.8155 11.9182 41.8105 11.9042 41.8069 11.8902C41.7861 11.8305 41.7861 11.7677 41.7893 11.7044C41.7437 11.4721 41.7012 11.2389 41.6514 11.0075C41.6307 10.9112 41.6691 10.8678 41.7563 10.8493C42.1342 10.7693 42.517 10.7245 42.9026 10.706C43.0526 10.6567 43.2077 10.6721 43.3613 10.673C43.4074 10.673 43.454 10.673 43.5001 10.673C43.6271 10.673 43.7559 10.6576 43.8798 10.6965C43.8902 10.6992 43.9006 10.7028 43.911 10.7069C44.4755 10.757 44.9469 10.9758 45.1526 11.5331C45.3131 11.9679 45.3858 12.4308 45.3565 12.9018C45.4139 12.9917 45.3881 13.0921 45.3881 13.1879C45.3894 15.2766 45.389 17.3657 45.3899 19.4543C45.3899 19.5366 45.3958 19.6193 45.3985 19.7016C46.5746 19.7016 47.7507 19.702 48.9268 19.7025C48.9317 19.6207 48.9412 19.5384 48.9412 19.4566C48.9421 17.226 48.9421 14.995 48.9412 12.7644H48.9417Z" fill="#FEFEFF"/>
<path d="M16.7977 3.02522C16.8032 2.94205 16.7539 2.92895 16.6847 2.92895C15.4087 2.93392 14.1328 2.93753 12.8572 2.94115C12.7275 3.37552 12.6046 3.81214 12.4667 4.2438C12.2484 4.92631 12.0477 5.6138 11.8411 6.29947C11.5935 7.12211 11.3421 7.94383 11.094 8.76647C10.8165 9.68809 10.5295 10.607 10.2352 11.5236C9.90751 12.5456 9.56716 13.5635 9.22319 14.6103C9.18974 14.5416 9.16307 14.5041 9.15223 14.4625C8.86069 13.3117 8.50587 12.179 8.15241 11.0463C7.38402 8.58431 6.58444 6.13224 5.7139 3.70412C5.57875 3.32715 5.35592 3.03245 4.9446 2.92578C3.70206 2.92714 2.45998 2.92804 1.21744 2.92985C1.13473 2.92985 1.05247 2.93573 0.969751 2.93844C0.941728 3.06002 0.998679 3.13099 1.10399 3.18251C1.20072 3.22952 1.29157 3.28015 1.3761 3.35608C1.82041 3.7561 2.05861 4.2777 2.24393 4.82416C2.5201 5.63821 2.7696 6.46129 3.03311 7.27985C3.38476 8.37233 3.74274 9.46299 4.09123 10.5568C4.43927 11.6511 4.77827 12.7481 5.12223 13.8437C5.31298 14.4512 5.51095 15.0564 5.69762 15.6653C5.93673 16.4454 6.16634 17.2283 6.40183 18.0098C6.54918 18.4993 6.71687 18.9838 6.84027 19.4792C6.88502 19.6596 6.94784 19.7061 7.11779 19.7057C8.4435 19.7007 9.7692 19.6998 11.0949 19.707C11.254 19.7079 11.3272 19.6596 11.3851 19.5127C11.8583 18.3036 12.299 17.0832 12.7194 15.8551C13.3061 14.142 13.8778 12.4236 14.4193 10.6956C14.9712 8.93416 15.5186 7.17137 16.0664 5.40859C16.3127 4.61489 16.5546 3.82028 16.7986 3.02612L16.7977 3.02522Z" fill="#FEFEFF"/>
<path d="M25.2051 11.7505C25.201 11.6154 25.1974 11.4798 25.1934 11.3446C25.1825 11.3266 25.1766 11.308 25.1735 11.2891C25.154 11.2185 25.1558 11.1453 25.1577 11.0721C25.1088 10.8158 25.0727 10.5568 25.0094 10.3042C24.7432 9.24242 24.1619 8.43696 23.1309 7.98632C22.56 7.73682 21.9598 7.62563 21.3514 7.53749C21.2777 7.53975 21.2041 7.5402 21.1326 7.52167C21.1132 7.51851 21.0942 7.51308 21.0761 7.50269C20.9722 7.49907 20.8682 7.49591 20.7638 7.49229L18.7782 7.49094C18.6467 7.49546 18.5151 7.49998 18.3841 7.5045C18.3691 7.51218 18.3533 7.51625 18.338 7.51941C18.2756 7.53614 18.2114 7.5384 18.1463 7.53342C17.6039 7.60258 17.0701 7.71377 16.5386 7.84033C16.4088 7.87106 16.3451 7.93028 16.3017 8.06135C16.0061 8.95314 15.6978 9.84131 15.3986 10.7317C15.3819 10.7819 15.3109 10.8298 15.3625 10.8922C15.4239 10.9668 15.4895 10.8963 15.5464 10.8805C16.2637 10.6802 16.9919 10.5442 17.7341 10.4822C17.7481 10.4728 17.7626 10.4678 17.777 10.4642C17.8362 10.4447 17.8982 10.4465 17.961 10.4506C18.064 10.4456 18.1675 10.4402 18.2706 10.4352C18.2882 10.4289 18.3063 10.4239 18.3244 10.4208C18.4428 10.3941 18.5635 10.3995 18.6846 10.404C18.987 10.404 19.2899 10.404 19.5922 10.404C19.7098 10.4 19.8273 10.3937 19.9421 10.4208C19.9615 10.4244 19.981 10.4294 20.0004 10.4375C20.2793 10.4348 20.5473 10.5062 20.8131 10.5731C21.0477 10.6323 21.2678 10.7562 21.4242 10.9356C21.6515 11.1964 21.7496 11.5227 21.7636 11.8708C21.8084 11.977 21.7984 12.0886 21.7962 12.1998C21.7998 12.3363 21.8762 12.5334 21.6063 12.4651C21.1358 12.3463 20.6517 12.3182 20.1758 12.2355C20.1048 12.2401 20.0347 12.2387 19.966 12.2242C19.943 12.2215 19.9199 12.2161 19.8978 12.2043C19.7495 12.1998 19.6013 12.1953 19.453 12.1903C19.1832 12.1903 18.9129 12.1912 18.643 12.1917C18.4663 12.1962 18.2891 12.2007 18.1124 12.2052C18.0948 12.2134 18.0767 12.2179 18.0586 12.2211C17.9836 12.2391 17.9072 12.2414 17.8299 12.2355C17.3418 12.2984 16.8563 12.3716 16.3867 12.5298C15.7006 12.7608 15.1925 13.2014 14.8675 13.8392C14.6614 14.2437 14.5692 14.6885 14.5195 15.1401C14.5231 15.2047 14.5231 15.2689 14.5023 15.3303C14.4987 15.3439 14.4942 15.3575 14.486 15.3701C14.482 15.4894 14.4775 15.6088 14.4734 15.7276C14.4743 15.9826 14.4752 16.2375 14.4756 16.4924C14.4788 16.6122 14.482 16.7324 14.4851 16.8522C14.496 16.8698 14.5014 16.8879 14.5046 16.9065C14.5245 16.9774 14.5227 17.0515 14.5208 17.1252C14.5294 17.4751 14.6348 17.8028 14.7482 18.1291C14.9737 18.7786 15.4013 19.2356 16.026 19.5258C16.5435 19.7662 17.0909 19.8679 17.6496 19.9366C17.7174 19.9317 17.7843 19.9335 17.848 19.9561C17.8597 19.9592 17.8715 19.9633 17.8828 19.9705C17.9709 19.975 18.0591 19.9796 18.1468 19.9841C18.2353 19.9805 18.323 19.9809 18.4103 19.994C18.4446 19.9963 18.479 20.0017 18.512 20.0166C18.7818 20.0202 19.0512 20.0243 19.321 20.0279C19.4557 20.0284 19.59 20.0288 19.7247 20.0293C19.9493 20.0252 20.1744 20.0207 20.399 20.0166C20.428 20.0035 20.4578 19.9972 20.4881 19.9945C20.5789 19.9782 20.6716 19.9787 20.7647 19.9827C20.8529 19.9787 20.9405 19.9741 21.0287 19.9701C21.04 19.9633 21.0517 19.9592 21.0635 19.9561C21.1277 19.9339 21.1941 19.9335 21.2619 19.9384C21.7745 19.8928 22.2798 19.8001 22.7869 19.7174C23.6046 19.5832 24.4024 19.3685 25.1897 19.1126C25.1943 19.015 25.2024 18.9178 25.2024 18.8202C25.2042 16.4635 25.2056 14.1068 25.2065 11.7501L25.2051 11.7505ZM21.8097 15.0185C21.7903 15.3181 21.8048 15.6201 21.8048 15.9207C21.8048 16.2443 21.7998 16.5679 21.8075 16.8911C21.8102 17.01 21.7695 17.0606 21.6556 17.0958C20.7638 17.3716 19.8553 17.4321 18.9355 17.3015C18.4781 17.2364 18.2539 16.9833 18.1874 16.5263C18.135 16.1665 18.1287 15.8072 18.1911 15.4483C18.2579 15.0628 18.4713 14.8083 18.8636 14.7233C19.4964 14.5864 20.1364 14.6392 20.7742 14.6605C21.0436 14.6695 21.3116 14.7192 21.5806 14.7473C21.7469 14.7644 21.8215 14.8318 21.8093 15.0185H21.8097Z" fill="#FEFEFF"/>
<path d="M60.5486 13.1065C60.5436 12.8846 60.5386 12.6627 60.5337 12.4407C60.5255 12.4204 60.521 12.4 60.5178 12.3793C60.4993 12.2916 60.4984 12.2021 60.5034 12.1121C60.4256 11.501 60.356 10.8886 60.1766 10.2956C59.8512 9.218 59.2473 8.38045 58.1779 7.92846C57.6581 7.70879 57.1075 7.62969 56.5588 7.53658C56.4879 7.53884 56.4169 7.54019 56.3482 7.52302C56.3269 7.51985 56.3062 7.51398 56.2858 7.50177C56.181 7.49861 56.0761 7.49544 55.9717 7.49228C55.4754 7.49228 54.9791 7.49228 54.4828 7.49228C54.3929 7.49544 54.3034 7.49861 54.2134 7.50177C54.1994 7.51126 54.1845 7.51669 54.1696 7.5203C54.1104 7.53974 54.0484 7.53838 53.9861 7.53522C53.7009 7.5872 53.4134 7.62833 53.1313 7.69297C52.301 7.88326 51.5602 8.24395 50.9663 8.86996C50.4912 9.37032 50.1857 9.96921 49.9692 10.6169C49.797 11.1317 49.6907 11.6615 49.6374 12.2021C49.6424 12.2685 49.6397 12.3345 49.6184 12.3973C49.6153 12.4104 49.6107 12.4236 49.6035 12.4358C49.5999 12.5234 49.5958 12.6116 49.5922 12.6993C49.5958 12.8109 49.5931 12.9226 49.58 13.0333C49.5787 13.0771 49.5732 13.1205 49.5592 13.1635C49.5592 13.5025 49.5583 13.8415 49.5579 14.1805C49.5719 14.2193 49.5773 14.2591 49.5791 14.2989C49.5922 14.3965 49.5936 14.4946 49.5877 14.5936C49.5922 14.6835 49.5967 14.7739 49.6008 14.8639C49.6112 14.8783 49.6162 14.8937 49.6198 14.9095C49.6383 14.9683 49.6379 15.0298 49.6352 15.0912C49.688 15.6237 49.7938 16.1453 49.9647 16.6524C50.2585 17.5248 50.6992 18.2999 51.4287 18.8902C52.1478 19.4724 52.984 19.7658 53.8812 19.9235C54.3355 20.0035 54.7938 20.0071 55.2516 20.0311C55.3561 20.0297 55.46 20.0284 55.5644 20.027C55.7597 20.0239 55.955 20.0207 56.1502 20.0175C56.1755 20.0044 56.2013 19.9981 56.228 19.9954C56.3066 19.9796 56.3871 19.9827 56.4675 19.9859C56.5566 19.9809 56.6456 19.9764 56.7351 19.9714C56.7478 19.9633 56.7604 19.9588 56.774 19.9551C56.8354 19.9339 56.9005 19.9339 56.9656 19.9375C57.0551 19.9335 57.1469 19.9411 57.2336 19.924C57.998 19.773 58.7722 19.6699 59.5189 19.434C59.645 19.3942 59.6984 19.3572 59.6704 19.2225C59.5072 18.4396 59.3336 17.6586 59.1958 16.8712C59.1582 16.656 59.0841 16.6619 58.9219 16.6972C58.3537 16.8201 57.7828 16.9308 57.1984 16.9471C57.1871 16.9544 57.1753 16.9589 57.1631 16.962C57.1008 16.9846 57.0352 16.9837 56.9688 16.9779C56.8671 16.9833 56.7654 16.9887 56.6632 16.9941C56.6465 17.0005 56.6293 17.005 56.6122 17.0081C56.5064 17.0325 56.3984 17.0307 56.2903 17.0244C55.9879 17.0452 55.6851 17.0443 55.3827 17.0244C55.2869 17.0321 55.192 17.033 55.1011 16.9946C55.1007 16.9946 55.1002 16.9946 55.0998 16.9941C53.7465 16.9643 53.1942 16.0368 53.2742 14.8209C53.3347 14.7748 53.4052 14.797 53.4703 14.797C55.7357 14.7956 58.0011 14.7956 60.2665 14.797C60.2747 14.797 60.2828 14.7979 60.2905 14.7979C60.3497 14.7961 60.4098 14.7897 60.4663 14.8169V14.8182C60.5151 14.7613 60.5079 14.6912 60.5124 14.6239C60.5115 14.5927 60.5147 14.5624 60.5323 14.5353C60.5373 14.2835 60.5423 14.0313 60.5472 13.7795V13.1056L60.5486 13.1065ZM57.1681 12.1677C56.5507 12.1555 55.9328 12.1632 55.3154 12.1632C54.6903 12.1632 54.0652 12.16 53.4401 12.1659C53.299 12.1673 53.2593 12.1397 53.2936 11.9892C53.3402 11.7844 53.3777 11.5779 53.4346 11.3745C53.624 10.6992 54.067 10.3163 54.7585 10.2237C55.2607 10.1563 55.7629 10.1559 56.2628 10.2549C56.7681 10.3548 57.0944 10.6468 57.2431 11.1403C57.3218 11.4016 57.3503 11.6696 57.3778 11.9395C57.3959 12.1135 57.3548 12.1718 57.1681 12.1677Z" fill="#FEFEFF"/>
<path d="M90.9222 12.7006C90.7423 12.7006 90.6166 12.7499 90.4887 12.8778C87.5109 15.8623 84.5296 18.8441 81.5428 21.8196C81.4149 21.9471 81.4316 22 81.546 22.1103C82.2823 22.8181 82.9688 23.577 83.7354 24.2536C84.097 24.5727 84.5264 24.7929 84.9987 24.8439C85.9312 24.9452 86.7367 24.6102 87.3921 23.9571C91.0871 20.2734 94.7741 16.5814 98.4628 12.8914C98.513 12.8412 98.5866 12.8055 98.5997 12.7038H98.3765C95.8918 12.7038 93.4072 12.7056 90.9222 12.7002V12.7006Z" fill="#FEFEFF"/>
<path d="M87.3076 0.815857C86.8018 0.312334 86.1554 0.0379727 85.434 0.00271705C84.6485 -0.0357026 84.0057 0.302842 83.4597 0.837101C82.8084 1.47441 82.1711 2.12619 81.5229 2.76667C81.4289 2.85978 81.4162 2.90408 81.5207 3.00849C84.5178 5.99753 87.5109 8.99065 90.5013 11.9865C90.6166 12.1017 90.7283 12.1528 90.8941 12.1524C93.395 12.1469 95.8955 12.1487 98.3963 12.1487H98.6373C98.5844 12.0868 98.5668 12.0629 98.5455 12.0421C94.8012 8.29819 91.0609 4.55069 87.3076 0.815857Z" fill="#FEFEFF"/>
<path d="M69.8967 16.8052C69.8705 16.6773 69.8456 16.6723 69.7245 16.7116C69.3439 16.8359 68.9529 16.9227 68.5515 16.9498C68.4602 16.9923 68.3635 16.9855 68.2672 16.9824C68.0498 16.9851 67.8301 17.0086 67.615 16.9869C66.9433 16.9191 66.4592 16.6524 66.4109 15.8216C66.367 15.734 66.3734 15.6399 66.3783 15.5464C66.3747 14.034 66.3725 12.5216 66.3652 11.0093C66.3648 10.8854 66.4253 10.8813 66.518 10.8813C67.6995 10.8845 68.8815 10.8859 70.063 10.8872C70.1032 10.3317 70.0725 9.77531 70.0797 9.21935C70.0847 8.82069 70.0698 8.42158 70.0856 8.02382C70.0933 7.83625 70.0255 7.80551 69.8573 7.80641C68.7739 7.81319 67.6909 7.81093 66.6075 7.80732C66.5325 7.80732 66.4434 7.85207 66.3788 7.77161C66.3603 6.95757 66.3584 6.14352 66.3797 5.32948C66.3829 5.20202 66.3453 5.07184 66.4077 4.9489C66.3964 4.93172 66.3738 4.91319 66.3752 4.89737C66.4344 4.30752 66.4448 3.71179 66.5736 3.13007C66.6034 2.99583 66.6111 2.90995 66.4253 2.94882C65.6249 3.11515 64.8479 3.34205 64.1459 3.78004C63.3952 4.24876 62.8794 4.87206 62.7881 5.78509C62.7881 6.40206 62.785 7.01904 62.7922 7.63556C62.794 7.77523 62.7511 7.8141 62.6132 7.81319C62.0265 7.80913 61.4398 7.81636 60.8531 7.81952C60.8531 8.76555 60.8586 9.71158 60.8477 10.6571C60.8455 10.8506 60.9038 10.8899 61.0859 10.8877C61.6405 10.88 62.1956 10.8931 62.7506 10.8985C62.8153 10.9306 62.7872 10.9907 62.7872 11.0377C62.7872 12.7503 62.7859 14.4634 62.785 16.176C62.789 16.2962 62.7931 16.416 62.7972 16.5363C62.8067 16.5521 62.8121 16.5688 62.8157 16.586C62.8369 16.6583 62.8347 16.7342 62.8329 16.8097C62.8736 17.3114 62.9961 17.7923 63.1872 18.2584C63.3843 18.7384 63.6768 19.137 64.1129 19.4286C64.6463 19.7852 65.2416 19.9357 65.8707 19.9836C65.9404 19.9809 66.0095 19.9805 66.0769 19.9963C66.0995 19.999 66.1221 20.0053 66.1437 20.0184C66.3395 20.0229 66.5347 20.0275 66.7304 20.0315C66.8349 20.0302 66.9388 20.0293 67.0432 20.0279C67.2349 20.0239 67.4265 20.0193 67.6182 20.0153C67.6349 20.0076 67.6516 20.0031 67.6688 20.0003C67.7447 19.9814 67.8225 19.9791 67.9011 19.985C67.9761 19.9809 68.0507 19.9773 68.1258 19.9732C68.1389 19.9642 68.1529 19.9588 68.1669 19.9556C68.227 19.9348 68.2903 19.9348 68.3536 19.9375C68.4557 19.9194 68.5579 19.8996 68.6605 19.8842C69.2223 19.8019 69.7742 19.6826 70.3066 19.4792C70.4251 19.434 70.4422 19.382 70.416 19.2627C70.2361 18.4455 70.0621 17.6265 69.8953 16.8065L69.8967 16.8052Z" fill="#FEFEFF"/>
<path d="M29.9386 17.7173C29.93 17.6983 29.9241 17.6789 29.9205 17.6595C29.8957 17.5596 29.9024 17.4565 29.9029 17.3539C29.8988 17.1776 29.8943 17.0013 29.8902 16.8246C29.8505 16.7301 29.8703 16.6312 29.8703 16.5349C29.869 12.1017 29.8694 7.66809 29.8694 3.23492C29.8694 3.03182 29.7644 2.93012 29.5544 2.92982C28.5532 2.92982 27.5521 2.92937 26.5509 2.93072C26.4614 2.93072 26.3714 2.94157 26.2819 2.94745C26.2838 3.04508 26.2865 3.14271 26.2869 3.24079C26.2869 7.60436 26.2869 11.9675 26.2869 16.331C26.2869 16.459 26.2833 16.5864 26.2815 16.7143C26.2937 16.736 26.3 16.7591 26.3027 16.7821C26.3181 16.8499 26.3186 16.9195 26.3154 16.9896C26.3362 17.2463 26.3904 17.4949 26.4655 17.7422C26.6716 18.422 27.0381 18.9811 27.6361 19.3779C28.1568 19.7237 28.7381 19.8833 29.3542 19.9366C29.6846 19.9366 30.015 19.9375 30.3454 19.9375C30.4489 19.8702 30.3617 19.8033 30.3382 19.745C30.0783 19.0936 29.9535 18.4165 29.939 17.7173H29.9386Z" fill="#FEFEFF"/>
<path d="M72.4253 12.1519C73.6832 12.1546 74.9406 12.1537 76.1985 12.1537C77.4564 12.1537 78.7143 12.1514 79.9718 12.1569C80.12 12.1573 80.224 12.1121 80.3275 12.0082C81.9221 10.4077 83.5186 8.80894 85.1209 7.21611C85.247 7.09091 85.2285 7.0317 85.115 6.9187C83.8702 5.68159 82.6295 4.44086 81.3924 3.19651C81.2753 3.079 81.2093 3.07402 81.0877 3.19561C78.1728 6.11731 75.2534 9.03449 72.3358 11.9535C72.2897 11.9996 72.2002 12.0439 72.2232 12.109C72.2544 12.1962 72.3557 12.1519 72.4248 12.1519H72.4253Z" fill="#FEFEFF"/>
<path d="M85.108 17.9401C85.231 17.8181 85.2382 17.7548 85.1107 17.6274C83.5138 16.0395 81.9228 14.4462 80.334 12.8507C80.2242 12.7404 80.1135 12.6956 79.958 12.6961C78.7078 12.7015 77.4575 12.6993 76.2073 12.6993C74.9494 12.6993 73.692 12.6988 72.4341 12.7006C72.3635 12.7006 72.2609 12.6599 72.2279 12.7368C72.194 12.8154 72.2962 12.8588 72.3459 12.9085C75.2523 15.8171 78.1613 18.723 81.0645 21.6352C81.2105 21.7817 81.2828 21.7654 81.4179 21.6293C82.6433 20.3945 83.8736 19.1646 85.1085 17.9392L85.108 17.9401Z" fill="#FEFEFF"/>
</g>
<defs>
<clipPath id="clip0_37_706">
<rect width="97.6749" height="24.862" fill="white" transform="translate(0.962402)"/>
</clipPath>
</defs>
</svg>
