<svg xmlns="http://www.w3.org/2000/svg" width="72" height="71" viewBox="0 0 72 71" fill="none"><g clip-path="url(#clip0_174_4668)"><path d="M71.0112 38.6879C70.3499 40.7069 68.7847 41.3886 66.8416 41.4349C66.1507 41.4516 65.8932 41.7127 65.7765 42.3777C65.6209 43.2594 65.3468 44.1245 65.0763 44.9803C64.9504 45.3785 65.0226 45.6138 65.3653 45.8416C65.808 46.1343 66.2229 46.4677 66.6397 46.7992C67.9437 47.8403 68.3401 49.5018 67.5529 50.9614C66.7193 52.5044 65.8413 54.0252 64.9226 55.52C64.089 56.8722 62.4812 57.3742 60.979 56.8445C60.9567 56.837 60.9345 56.8315 60.9123 56.8241C60.2288 56.5629 59.486 56.0072 58.8765 56.1258C58.2986 56.2387 57.8596 57.0612 57.3558 57.5687C56.9186 58.0096 56.2184 58.393 56.1129 58.9024C56.0073 59.4099 56.4907 60.0434 56.7241 60.6177C57.4817 62.4756 56.9334 64.113 55.2034 65.1207C53.8864 65.8876 52.5675 66.6507 51.2394 67.3972C49.5445 68.3493 47.8848 68.0011 46.6937 66.4692C46.2992 65.9616 45.975 65.2226 45.4582 65.0373C44.9803 64.8651 44.2876 65.293 43.6893 65.456C43.4447 65.5226 43.1984 65.5819 42.952 65.6449C42.0049 65.8845 41.472 66.4982 41.3535 67.4861C41.0589 69.9534 39.8975 70.9926 37.4321 70.9926C35.9984 70.9926 34.5665 71 33.1328 70.9907C31.3045 70.9778 29.8153 69.8164 29.756 68.0029C29.7023 66.3673 29.1058 65.5671 27.4906 65.4949C27.2201 65.4819 26.9534 65.3633 26.6885 65.2856C25.8821 65.0522 25.2239 65.2738 24.7139 65.9505C24.5194 66.208 24.3324 66.4747 24.1249 66.7211C23.095 67.9344 21.4557 68.2956 20.0498 67.5361C18.4864 66.6915 16.9434 65.8042 15.4319 64.8706C14.1408 64.0723 13.6425 62.4774 14.1315 61.0363C14.1538 60.9715 14.1723 60.9048 14.1982 60.8399C14.4538 60.1768 14.9966 59.4618 14.8836 58.8691C14.778 58.3097 13.9815 57.8836 13.4906 57.3965C13.0331 56.9426 12.6386 56.2147 12.1106 56.1017C11.5864 55.9887 10.927 56.4851 10.3306 56.7241C8.53564 57.4446 6.90188 56.9093 5.92755 55.2514C5.13105 53.8992 4.3438 52.5396 3.57323 51.1726C2.65818 49.5463 3.00271 47.8792 4.46235 46.7289C4.98656 46.3158 5.77751 45.9861 5.95348 45.4563C6.12945 44.9284 5.68304 44.1949 5.51263 43.5521C5.47187 43.3965 5.43298 43.2391 5.39408 43.0816C5.12981 42.0073 4.43827 41.4194 3.31946 41.3182C1.22632 41.1329 0.0111907 39.8104 0.00378132 37.7154C0.00378132 37.3227 0.00378132 36.93 0.00378132 36.5373C0.00378132 35.4055 -0.00362802 34.2719 0.00378132 33.1401C0.0186 31.2544 1.24114 29.9022 3.112 29.6874C3.41023 29.654 3.7103 29.5651 4.00483 29.5855C4.84579 29.6485 5.15883 29.2465 5.28108 28.4463C5.40519 27.6313 5.67007 26.8329 5.93125 26.0457C6.07203 25.6215 5.99609 25.3714 5.62562 25.1306C5.18106 24.8417 4.76428 24.5064 4.35306 24.1711C3.05643 23.1171 2.68411 21.4593 3.47876 19.9997C4.30676 18.4789 5.16994 16.9767 6.07203 15.5003C6.91484 14.1185 8.54675 13.598 10.0675 14.163C10.6288 14.3723 11.166 14.6557 11.7346 14.8354C11.9328 14.8983 12.2699 14.8316 12.42 14.6909C13.2146 13.9518 13.9815 13.1812 14.7243 12.3903C14.8521 12.2532 14.9095 11.9402 14.8502 11.7586C14.6724 11.2122 14.4075 10.6935 14.1982 10.1564C13.5758 8.55223 14.1241 6.88142 15.593 6.00527C17.0212 5.15505 18.4604 4.32335 19.9145 3.51573C21.4242 2.67662 23.1209 3.03412 24.2064 4.37707C24.6528 4.92906 25.0085 5.75335 25.579 5.95155C26.1143 6.13679 26.8719 5.54219 27.5462 5.49588C29.1614 5.38474 29.7152 4.58268 29.743 3.00078C29.769 1.42074 30.9044 0.529768 32.3141 0H38.6935C40.4328 0.613123 41.3257 1.84307 41.3775 3.688C41.3849 3.964 41.4627 4.23629 41.4739 4.51229C41.4887 4.89572 41.6443 5.08281 42.0444 5.14764C42.6112 5.24026 43.1669 5.40697 43.7263 5.54774C44.3246 5.69964 45.0063 6.109 45.4934 5.94229C45.988 5.77188 46.2936 5.0402 46.6734 4.54933C47.8866 2.98041 49.5278 2.63587 51.269 3.61205C52.5971 4.35669 53.9141 5.12171 55.2312 5.88857C56.9279 6.87772 57.4743 8.51148 56.7353 10.336C56.5019 10.9121 55.998 11.5475 56.1092 12.0476C56.2259 12.5792 56.9242 12.9849 57.3706 13.4405C57.8707 13.9499 58.3116 14.752 58.8951 14.878C59.4749 15.0039 60.201 14.4445 60.8623 14.187C60.9271 14.1611 60.9938 14.1444 61.0586 14.1222C62.5016 13.6369 64.089 14.1333 64.8892 15.4281C65.8339 16.9581 66.736 18.5196 67.5807 20.1071C68.3105 21.4778 67.9234 23.119 66.7267 24.1137C66.2655 24.4971 65.7469 24.8157 65.3116 25.2232C65.1467 25.3788 65.0319 25.7289 65.08 25.9494C65.2838 26.87 65.6135 27.7665 65.7913 28.6927C65.908 29.3021 66.1377 29.5392 66.7731 29.5559C68.7328 29.604 70.3388 30.2523 71.0075 32.3084V38.6879H71.0112ZM54.92 8.72079C54.6995 8.45961 54.5032 8.07062 54.1864 7.87613C52.8491 7.05369 51.482 6.28127 50.115 5.50884C49.4259 5.11985 48.974 5.21803 48.4831 5.84226C47.9681 6.49614 47.4606 7.15557 46.979 7.83353C46.5418 8.4485 46.025 8.59113 45.2971 8.37626C43.7281 7.91318 42.1463 7.48158 40.5532 7.11111C39.8216 6.9407 39.4882 6.5443 39.4085 5.84597C39.314 5.01983 39.214 4.19554 39.1084 3.3694C39.0084 2.58216 38.6213 2.22836 37.8192 2.2228C36.2706 2.21169 34.7221 2.21169 33.1735 2.2228C32.3845 2.22836 32.0047 2.59327 31.9028 3.39163C31.801 4.19369 31.6935 4.9939 31.6139 5.79966C31.5398 6.53319 31.1953 6.9444 30.4414 7.12223C28.828 7.50381 27.2294 7.95763 25.6308 8.40219C25.001 8.57816 24.5065 8.46702 24.1101 7.92058C23.6081 7.22966 23.0913 6.548 22.5634 5.87561C22.0466 5.21432 21.6002 5.1143 20.8815 5.52181C19.5348 6.28312 18.1956 7.05554 16.8619 7.84093C16.1636 8.25215 16.0191 8.71338 16.3284 9.48025C16.6396 10.2508 16.9619 11.0158 17.3027 11.7734C17.5991 12.4292 17.4787 12.9386 16.9489 13.4461C15.7486 14.5945 14.5817 15.7782 13.424 16.9711C12.9646 17.4434 12.4904 17.6027 11.8717 17.3304C11.0696 16.9767 10.262 16.634 9.44699 16.3098C8.71531 16.0171 8.24852 16.1635 7.85768 16.8266C7.05933 18.1788 6.27579 19.5384 5.50336 20.9055C5.11808 21.5871 5.22366 22.0465 5.84975 22.5355C6.52215 23.0616 7.20196 23.5839 7.89473 24.0822C8.46525 24.4934 8.58009 24.9954 8.39301 25.6585C7.93919 27.2553 7.49648 28.8557 7.11119 30.4691C6.94633 31.16 6.57772 31.5101 5.90162 31.5934C5.07733 31.6953 4.25119 31.7953 3.4269 31.8954C2.58408 31.9991 2.22658 32.3696 2.22103 33.1994C2.21176 34.7239 2.21176 36.2502 2.22103 37.7747C2.22658 38.6193 2.57297 39.0009 3.40096 39.1046C4.20303 39.2047 5.00509 39.3121 5.809 39.3955C6.54252 39.4714 6.94448 39.8196 7.12045 40.5773C7.48907 42.1703 7.92992 43.7485 8.3856 45.3192C8.5875 46.0157 8.45228 46.5251 7.85953 46.9456C7.2001 47.4142 6.56475 47.9125 5.92384 48.4071C5.19773 48.9665 5.10326 49.3981 5.55708 50.1964C6.29987 51.5005 7.05006 52.8008 7.80767 54.0956C8.24297 54.8384 8.69494 54.9921 9.48959 54.6717C10.2824 54.3531 11.0696 54.0234 11.8495 53.6788C12.4644 53.4065 12.9386 53.5492 13.4017 54.0271C14.5743 55.2366 15.7672 56.4277 16.9767 57.6002C17.4528 58.0633 17.5917 58.5412 17.3213 59.1543C16.9767 59.936 16.647 60.7232 16.3284 61.5142C16.008 62.3107 16.158 62.7627 16.9026 63.1961C18.2178 63.9648 19.5385 64.7261 20.8648 65.4745C21.589 65.8839 22.0373 65.7894 22.5504 65.1355C23.0783 64.4631 23.597 63.7833 24.0971 63.0905C24.4917 62.5459 24.9807 62.42 25.6142 62.596C27.2127 63.0405 28.8094 63.4943 30.4247 63.8759C31.1749 64.0537 31.5324 64.4538 31.6083 65.1911C31.6935 66.0172 31.7973 66.8434 31.9065 67.6676C32.0047 68.416 32.3956 68.7735 33.155 68.7791C34.7036 68.7902 36.2521 68.7902 37.8007 68.7791C38.6305 68.7735 39.0084 68.4141 39.1103 67.5769C39.2122 66.7526 39.3103 65.9265 39.4104 65.1003C39.4845 64.4928 39.7623 64.0852 40.3977 63.9222C42.0722 63.4943 43.7411 63.0461 45.4101 62.5886C46.0121 62.4237 46.4955 62.5311 46.8771 63.0498C47.3717 63.7185 47.8755 64.3798 48.3831 65.0392C48.9777 65.8116 49.3963 65.9061 50.2206 65.4356C51.5043 64.7039 52.7824 63.963 54.0568 63.2146C54.8588 62.746 55.0015 62.2977 54.6403 61.4197C54.3254 60.651 54.0031 59.886 53.6715 59.1247C53.4159 58.5412 53.5344 58.0744 53.9919 57.628C55.2145 56.4351 56.4222 55.2255 57.6151 54.003C58.0578 53.551 58.5191 53.4065 59.1081 53.6621C59.912 54.0122 60.7196 54.3531 61.5347 54.6791C62.2997 54.9866 62.7627 54.8384 63.174 54.1419C63.9482 52.8286 64.7077 51.5079 65.4598 50.1835C65.9043 49.3999 65.8043 48.9628 65.0726 48.3978C64.4336 47.9032 63.7945 47.4068 63.1351 46.9382C62.5368 46.514 62.4256 45.999 62.6275 45.3063C63.0795 43.7577 63.487 42.1962 63.8853 40.6328C64.1094 39.7548 64.3502 39.5029 65.2152 39.3992C66.0173 39.3028 66.8194 39.2065 67.6214 39.1046C68.4198 39.0046 68.781 38.6249 68.7865 37.8321C68.7995 36.2835 68.7977 34.735 68.7865 33.1864C68.781 32.3881 68.4253 32.0009 67.6362 31.9009C66.812 31.7953 65.9858 31.6953 65.1597 31.6027C64.4576 31.523 64.0649 31.1841 63.8945 30.4561C63.5222 28.8631 63.0906 27.283 62.6331 25.7123C62.433 25.0232 62.5238 24.5064 63.1258 24.0767C63.8019 23.5932 64.4613 23.0857 65.1171 22.5744C65.8024 22.0391 65.8951 21.5908 65.4653 20.8332C64.7244 19.5273 63.9723 18.2288 63.2147 16.934C62.7627 16.1616 62.3108 16.0134 61.4772 16.3524C60.6863 16.6747 59.899 17.0044 59.1155 17.3434C58.5598 17.5842 58.0967 17.486 57.6707 17.0526C56.4389 15.8041 55.196 14.5649 53.9512 13.3294C53.5437 12.9256 53.4251 12.4847 53.6548 11.9476C53.9919 11.164 54.3217 10.3749 54.644 9.58583C54.7384 9.35429 54.7959 9.10793 54.9163 8.72079H54.92Z" fill="white"></path><path d="M35.4982 59.9063C22.2521 59.9915 11.1937 49.0739 11.0973 35.8149C10.9992 22.2058 21.8427 11.164 35.3685 11.0991C48.8405 11.0362 59.8249 21.9168 59.9138 35.411C60.0008 48.8868 49.1054 59.8174 35.4982 59.9045V59.9063ZM39.9438 57.2408C39.9438 55.57 39.9512 53.9548 39.9401 52.3414C39.9345 51.4449 39.5214 51.0577 38.6101 51.0355C38.0803 51.0225 37.5394 51.0614 37.0208 50.9725C34.6905 50.5798 33.1012 48.5237 33.3013 46.2102C33.4958 43.9373 35.3907 42.1943 37.7302 42.1665C39.5085 42.1461 41.2886 42.1665 43.0686 42.1591C43.9485 42.1554 44.3153 41.7942 44.3875 40.9125C44.5394 39.0175 45.9101 37.7431 47.8254 37.7265C48.8646 37.7172 49.9056 37.7357 50.9448 37.7191C51.695 37.7061 52.0803 37.3227 52.1506 36.5743C52.347 34.4756 53.6492 33.2938 55.7701 33.2883C56.361 33.2883 56.95 33.2883 57.6243 33.2883C57.4409 32.288 57.2779 31.4007 57.1112 30.4987C53.5306 31.6063 50.6669 30.7858 48.8905 28.1981C48.0533 26.9792 47.6495 25.6233 47.7217 24.147C47.8217 22.0724 48.7572 20.409 50.4576 19.0179C48.9591 17.9528 47.5457 16.9488 46.0991 15.9226C45.9453 16.1949 45.8898 16.2931 45.8323 16.3931C45.7749 16.4931 45.7212 16.595 45.6601 16.6932C44.4153 18.6993 42.6111 19.7959 40.2587 19.9663C39.188 20.0441 38.9064 20.2997 38.8231 21.3981C38.6749 23.3653 37.2968 24.9954 35.3611 25.3936C34.7146 25.527 34.0311 25.4881 33.3643 25.5251C32.6233 25.5677 32.2177 25.9641 32.1806 26.6958C32.1677 26.9496 32.1769 27.2034 32.1769 27.459C32.1695 29.578 30.997 30.8654 28.8872 31.071C28.1444 31.1433 27.7721 31.5341 27.7424 32.2843C27.7313 32.5381 27.7424 32.7937 27.7295 33.0456C27.559 36.0464 24.7046 38.234 21.7631 37.6209C19.4032 37.1282 17.8343 35.2128 17.7546 32.7252C17.6879 30.5987 16.3895 28.7112 14.5927 28.174C12.9793 32.8085 12.8867 37.4579 14.3426 42.1665C15.078 42.1665 15.7467 42.1535 16.4154 42.1684C18.3826 42.2128 19.9219 43.0482 21.0018 44.7005C21.3056 45.1636 21.5741 45.6489 21.865 46.1194C22.4948 47.1419 23.408 47.6661 24.612 47.7143C27.7647 47.8439 29.9411 50.1093 29.956 53.2657C29.9615 54.4882 29.956 55.7108 29.956 56.9593C33.2642 57.8354 36.5503 57.9299 39.9419 57.2464L39.9438 57.2408ZM43.9541 15.0539C32.9975 10.2508 19.9237 15.8467 15.5541 26.0642C18.4659 27.4831 19.8867 29.8188 20.0145 33.0623C20.0849 34.8387 22.015 35.9445 23.6877 35.3425C24.875 34.9165 25.5067 33.894 25.5196 32.3843C25.5344 30.5376 26.6199 29.1909 28.3389 28.889C29.9245 28.6093 29.9523 28.5759 29.9578 26.9366C29.9578 26.8218 29.9578 26.7051 29.9597 26.5902C30.0041 24.9768 31.0859 23.6672 32.6826 23.3783C33.2439 23.2764 33.8329 23.3227 34.409 23.3023C35.6037 23.2597 36.5966 22.4058 36.5892 21.2277C36.5762 19.3754 38.0636 17.7231 40.1883 17.7305C41.8813 17.7361 43.4743 16.5191 43.9522 15.0539H43.9541ZM57.6613 35.5592C57.5484 35.5352 57.4835 35.5111 57.4187 35.5092C56.8408 35.5055 56.2628 35.4981 55.6849 35.5055C54.805 35.5185 54.4327 35.876 54.3623 36.7521C54.2067 38.6545 52.8453 39.9215 50.93 39.9382C49.8908 39.9474 48.8498 39.927 47.8106 39.9456C47.0604 39.9585 46.6714 40.3475 46.601 41.0903C46.3991 43.2001 45.1136 44.3726 42.9853 44.3764C41.2515 44.3801 39.5196 44.3652 37.7858 44.3819C36.4799 44.3949 35.513 45.3507 35.5074 46.588C35.5019 47.8235 36.4743 48.7812 37.7673 48.8127C37.9988 48.8182 38.2285 48.8127 38.46 48.8145C40.8162 48.8182 42.1591 50.1575 42.161 52.5062C42.1629 53.8622 42.161 55.2199 42.161 56.5925C50.6317 54.2197 57.7577 45.5878 57.6613 35.5574V35.5592ZM15.3021 44.4486C16.3913 48.6589 23.934 55.7626 27.7387 56.1313C27.7387 55.207 27.7406 54.2863 27.7387 53.3657C27.7332 51.2633 26.5143 50.0093 24.4267 49.9185C22.6837 49.8426 21.2815 49.0905 20.2497 47.6846C19.9367 47.2586 19.6811 46.7899 19.4088 46.3361C18.4067 44.6709 17.2675 44.1448 15.304 44.4467L15.3021 44.4486ZM56.4425 28.2388C55.4626 25.4325 53.9789 22.9226 51.9821 20.7165C49.8889 22.0687 49.3184 24.7805 50.6503 26.831C51.9247 28.7889 54.5883 29.4539 56.4425 28.2407V28.2388Z" fill="white"></path><path d="M37.7358 37.7766C37.0726 37.7174 36.3891 37.7377 35.7501 37.5821C34.1534 37.195 33.1253 35.6483 33.305 34.0312C33.481 32.4475 34.7924 31.1693 36.3965 31.0823C37.2708 31.0341 38.1525 31.036 39.0269 31.0804C40.8218 31.1712 42.2018 32.692 42.161 34.485C42.1202 36.2429 40.6977 37.6636 38.9194 37.7155C38.5267 37.7266 38.134 37.7155 37.7413 37.7155C37.7413 37.734 37.7376 37.7544 37.7358 37.7729V37.7766ZM37.7117 35.4964C38.1044 35.4964 38.4989 35.5205 38.8898 35.4908C39.5066 35.4445 39.9308 34.9889 39.9382 34.4091C39.9456 33.8349 39.5251 33.3329 38.9139 33.3032C38.1081 33.2625 37.2931 33.2495 36.4892 33.3125C35.8908 33.3588 35.5426 33.77 35.5148 34.385C35.4889 34.9648 35.9223 35.439 36.5336 35.4908C36.9244 35.5242 37.319 35.4964 37.7117 35.4983V35.4964Z" fill="white"></path><path d="M39.9474 25.4159C39.8863 24.6805 40.0085 23.8914 40.5624 23.2357C41.2737 22.3929 42.1869 22.0261 43.276 22.2632C44.4486 22.517 45.2173 23.2616 45.4173 24.4341C45.5396 25.1473 45.5359 25.916 45.4118 26.631C45.1654 28.0592 43.8577 28.9724 42.4314 28.8353C41.0588 28.7038 39.9993 27.5516 39.9474 26.1327C39.94 25.9253 39.9474 25.7178 39.9474 25.4159ZM43.2742 25.5233C43.2742 25.3862 43.2705 25.2473 43.2742 25.1102C43.2853 24.7046 43.1056 24.3712 42.6944 24.4545C42.4832 24.499 42.2684 24.8546 42.185 25.1102C42.098 25.3807 42.0905 25.7308 42.1887 25.992C42.2795 26.2365 42.5573 26.4106 42.7518 26.6143C42.926 26.4106 43.1297 26.2253 43.2594 25.9975C43.3298 25.8771 43.2723 25.6826 43.2723 25.5215L43.2742 25.5233Z" fill="white"></path><path d="M27.6904 44.4023C27.3236 44.3726 26.9476 44.3856 26.592 44.3078C25.2583 44.0151 24.3636 42.8389 24.4136 41.4923C24.4618 40.1882 25.425 39.062 26.7513 38.8823C27.4051 38.7934 28.0961 38.7897 28.7481 38.8879C30.204 39.1065 31.1876 40.4253 31.0561 41.8609C30.9283 43.2742 29.7724 44.3337 28.3146 44.3745C28.1072 44.3801 27.8997 44.3745 27.6922 44.3745V44.4004L27.6904 44.4023ZM27.7367 42.1591C27.8738 42.1591 28.0405 42.2091 28.1442 42.1498C28.3906 42.0091 28.7573 41.8479 28.8018 41.6349C28.8907 41.2218 28.5517 41.0458 28.1498 41.0496C27.8516 41.0533 27.5237 40.9755 27.2625 41.0736C27.018 41.1663 26.8439 41.4441 26.6401 41.6404C26.8457 41.8127 27.0328 42.0146 27.2625 42.1443C27.3848 42.2128 27.5774 42.1572 27.7386 42.1572L27.7367 42.1591Z" fill="white"></path></g><defs><clipPath id="clip0_174_4668"><rect width="71.0111" height="71" fill="white"></rect></clipPath></defs></svg>