<svg xmlns="http://www.w3.org/2000/svg" width="127" height="125" viewBox="0 0 127 125" fill="none"><rect x="1" y="1" width="125" height="123" rx="4" stroke="white" stroke-width="2"></rect><path d="M12.4415 7H8V33.6466H12.4415V7Z" fill="white"></path><path d="M12.4415 33.6465H8V38.088H12.4415V33.6465Z" fill="white"></path><path d="M12.4415 42.5298H8V51.4128H12.4415V42.5298Z" fill="white"></path><path d="M12.4415 69.1758H8V73.6173H12.4415V69.1758Z" fill="white"></path><path d="M12.4415 78.0591H8V82.5006H12.4415V78.0591Z" fill="white"></path><path d="M12.4415 86.9424H8V95.8254H12.4415V86.9424Z" fill="white"></path><path d="M12.4415 95.8228H8V109.147H12.4415V95.8228Z" fill="white"></path><path d="M12.4415 109.147H8V118.03H12.4415V109.147Z" fill="white"></path><path d="M16.8829 7H12.4414V11.4415H16.8829V7Z" fill="white"></path><path d="M16.8829 33.6465H12.4414V38.088H16.8829V33.6465Z" fill="white"></path><path d="M16.8829 46.9712H12.4414V51.4127H16.8829V46.9712Z" fill="white"></path><path d="M16.8829 69.1758H12.4414V73.6173H16.8829V69.1758Z" fill="white"></path><path d="M16.8829 78.0591H12.4414V82.5006H16.8829V78.0591Z" fill="white"></path><path d="M16.8829 86.9424H12.4414V91.3839H16.8829V86.9424Z" fill="white"></path><path d="M16.8829 113.588H12.4414V118.03H16.8829V113.588Z" fill="white"></path><path d="M21.3246 7H16.8831V11.4415H21.3246V7Z" fill="white"></path><path d="M21.3246 15.8828H16.8831V29.2073H21.3246V15.8828Z" fill="white"></path><path d="M21.3246 33.6465H16.8831V38.088H21.3246V33.6465Z" fill="white"></path><path d="M21.3246 42.5298H16.8831V46.9713H21.3246V42.5298Z" fill="white"></path><path d="M21.3246 51.4126H16.8831V55.8541H21.3246V51.4126Z" fill="white"></path><path d="M21.3246 69.1758H16.8831V78.0588H21.3246V69.1758Z" fill="white"></path><path d="M21.3246 86.9424H16.8831V91.3839H21.3246V86.9424Z" fill="white"></path><path d="M21.3246 95.8228H16.8831V109.147H21.3246V95.8228Z" fill="white"></path><path d="M21.3246 113.588H16.8831V118.03H21.3246V113.588Z" fill="white"></path><path d="M25.766 7H21.3245V11.4415H25.766V7Z" fill="white"></path><path d="M25.766 15.8828H21.3245V29.2073H25.766V15.8828Z" fill="white"></path><path d="M25.766 33.6465H21.3245V38.088H25.766V33.6465Z" fill="white"></path><path d="M25.766 55.8516H21.3245V69.1761H25.766V55.8516Z" fill="white"></path><path d="M25.766 73.6177H21.3245V78.0592H25.766V73.6177Z" fill="white"></path><path d="M25.766 86.9424H21.3245V91.3839H25.766V86.9424Z" fill="white"></path><path d="M25.766 95.8228H21.3245V109.147H25.766V95.8228Z" fill="white"></path><path d="M25.766 113.588H21.3245V118.03H25.766V113.588Z" fill="white"></path><path d="M30.2049 7H25.7634V11.4415H30.2049V7Z" fill="white"></path><path d="M30.2049 15.8828H25.7634V29.2073H30.2049V15.8828Z" fill="white"></path><path d="M30.2049 33.6465H25.7634V38.088H30.2049V33.6465Z" fill="white"></path><path d="M30.2049 46.9712H25.7634V51.4127H30.2049V46.9712Z" fill="white"></path><path d="M30.2049 55.8516H25.7634V64.7346H30.2049V55.8516Z" fill="white"></path><path d="M30.2049 73.6177H25.7634V82.5007H30.2049V73.6177Z" fill="white"></path><path d="M30.2049 86.9424H25.7634V91.3839H30.2049V86.9424Z" fill="white"></path><path d="M30.2049 95.8228H25.7634V109.147H30.2049V95.8228Z" fill="white"></path><path d="M30.2049 113.588H25.7634V118.03H30.2049V113.588Z" fill="white"></path><path d="M34.6466 7H30.2051V11.4415H34.6466V7Z" fill="white"></path><path d="M34.6466 33.6465H30.2051V38.088H34.6466V33.6465Z" fill="white"></path><path d="M34.6466 46.9712H30.2051V51.4127H34.6466V46.9712Z" fill="white"></path><path d="M34.6466 60.2935H30.2051V69.1765H34.6466V60.2935Z" fill="white"></path><path d="M34.6466 73.6177H30.2051V78.0592H34.6466V73.6177Z" fill="white"></path><path d="M34.6466 86.9424H30.2051V91.3839H34.6466V86.9424Z" fill="white"></path><path d="M34.6466 113.588H30.2051V118.03H34.6466V113.588Z" fill="white"></path><path d="M39.0882 7H34.6467V33.6466H39.0882V7Z" fill="white"></path><path d="M39.0882 33.6465H34.6467V38.088H39.0882V33.6465Z" fill="white"></path><path d="M39.0882 42.5298H34.6467V46.9713H39.0882V42.5298Z" fill="white"></path><path d="M39.0882 51.4126H34.6467V55.8541H39.0882V51.4126Z" fill="white"></path><path d="M39.0882 60.2935H34.6467V64.735H39.0882V60.2935Z" fill="white"></path><path d="M39.0882 69.1758H34.6467V73.6173H39.0882V69.1758Z" fill="white"></path><path d="M39.0882 78.0591H34.6467V82.5006H39.0882V78.0591Z" fill="white"></path><path d="M39.0882 86.9424H34.6467V95.8254H39.0882V86.9424Z" fill="white"></path><path d="M39.0882 95.8228H34.6467V109.147H39.0882V95.8228Z" fill="white"></path><path d="M39.0882 109.147H34.6467V118.03H39.0882V109.147Z" fill="white"></path><path d="M43.5294 42.5298H39.0879V46.9713H43.5294V42.5298Z" fill="white"></path><path d="M47.971 7H43.5295V11.4415H47.971V7Z" fill="white"></path><path d="M47.971 15.8828H43.5295V20.3243H47.971V15.8828Z" fill="white"></path><path d="M47.971 29.2051H43.5295V33.6466H47.971V29.2051Z" fill="white"></path><path d="M47.971 33.6465H43.5295V38.088H47.971V33.6465Z" fill="white"></path><path d="M47.971 51.4126H43.5295V55.8541H47.971V51.4126Z" fill="white"></path><path d="M47.971 55.8516H43.5295V64.7346H47.971V55.8516Z" fill="white"></path><path d="M47.971 73.6177H43.5295V82.5007H47.971V73.6177Z" fill="white"></path><path d="M47.971 82.501H43.5295V91.384H47.971V82.501Z" fill="white"></path><path d="M47.971 104.706H43.5295V109.148H47.971V104.706Z" fill="white"></path><path d="M47.971 113.588H43.5295V118.03H47.971V113.588Z" fill="white"></path><path d="M52.4127 7H47.9712V11.4415H52.4127V7Z" fill="white"></path><path d="M52.4127 15.8828H47.9712V20.3243H52.4127V15.8828Z" fill="white"></path><path d="M52.4127 24.7632H47.9712V29.2047H52.4127V24.7632Z" fill="white"></path><path d="M52.4127 38.0884H47.9712V46.9714H52.4127V38.0884Z" fill="white"></path><path d="M52.4127 55.8516H47.9712V60.2931H52.4127V55.8516Z" fill="white"></path><path d="M52.4127 64.7349H47.9712V78.0594H52.4127V64.7349Z" fill="white"></path><path d="M52.4127 82.501H47.9712V91.384H52.4127V82.501Z" fill="white"></path><path d="M52.4127 100.265H47.9712V109.148H52.4127V100.265Z" fill="white"></path><path d="M52.4127 109.147H47.9712V118.03H52.4127V109.147Z" fill="white"></path><path d="M56.8541 11.4414H52.4126V20.3244H56.8541V11.4414Z" fill="white"></path><path d="M56.8541 24.7632H52.4126V33.6462H56.8541V24.7632Z" fill="white"></path><path d="M56.8541 33.6465H52.4126V38.088H56.8541V33.6465Z" fill="white"></path><path d="M56.8541 46.9712H52.4126V51.4127H56.8541V46.9712Z" fill="white"></path><path d="M56.8541 55.8516H52.4126V60.2931H56.8541V55.8516Z" fill="white"></path><path d="M56.8541 64.7349H52.4126V69.1764H56.8541V64.7349Z" fill="white"></path><path d="M56.8541 78.0591H52.4126V82.5006H56.8541V78.0591Z" fill="white"></path><path d="M56.8541 82.501H52.4126V86.9425H56.8541V82.501Z" fill="white"></path><path d="M56.8541 91.3813H52.4126V95.8228H56.8541V91.3813Z" fill="white"></path><path d="M56.8541 95.8228H52.4126V100.264H56.8541V95.8228Z" fill="white"></path><path d="M56.8541 104.706H52.4126V109.148H56.8541V104.706Z" fill="white"></path><path d="M56.8541 109.147H52.4126V118.03H56.8541V109.147Z" fill="white"></path><path d="M61.2955 7H56.854V11.4415H61.2955V7Z" fill="white"></path><path d="M61.2955 15.8828H56.854V33.6488H61.2955V15.8828Z" fill="white"></path><path d="M61.2955 42.5298H56.854V46.9713H61.2955V42.5298Z" fill="white"></path><path d="M61.2955 51.4126H56.854V55.8541H61.2955V51.4126Z" fill="white"></path><path d="M61.2955 55.8516H56.854V64.7346H61.2955V55.8516Z" fill="white"></path><path d="M61.2955 69.1758H56.854V73.6173H61.2955V69.1758Z" fill="white"></path><path d="M61.2955 78.0591H56.854V82.5006H61.2955V78.0591Z" fill="white"></path><path d="M61.2955 91.3813H56.854V95.8228H61.2955V91.3813Z" fill="white"></path><path d="M61.2955 104.706H56.854V109.148H61.2955V104.706Z" fill="white"></path><path d="M61.2955 113.588H56.854V118.03H61.2955V113.588Z" fill="white"></path><path d="M65.7347 7H61.2932V24.7635H65.7347V7Z" fill="white"></path><path d="M65.7347 29.2051H61.2932V33.6466H65.7347V29.2051Z" fill="white"></path><path d="M65.7347 33.6465H61.2932V38.088H65.7347V33.6465Z" fill="white"></path><path d="M65.7347 42.5298H61.2932V46.9713H65.7347V42.5298Z" fill="white"></path><path d="M65.7347 60.2935H61.2932V64.735H65.7347V60.2935Z" fill="white"></path><path d="M65.7347 69.1758H61.2932V73.6173H65.7347V69.1758Z" fill="white"></path><path d="M65.7347 78.0591H61.2932V82.5006H65.7347V78.0591Z" fill="white"></path><path d="M65.7347 91.3813H61.2932V95.8228H65.7347V91.3813Z" fill="white"></path><path d="M65.7347 95.8228H61.2932V109.147H65.7347V95.8228Z" fill="white"></path><path d="M65.7347 113.588H61.2932V118.03H65.7347V113.588Z" fill="white"></path><path d="M70.1761 7H65.7346V15.883H70.1761V7Z" fill="white"></path><path d="M70.1761 24.7632H65.7346V33.6462H70.1761V24.7632Z" fill="white"></path><path d="M70.1761 38.0884H65.7346V42.5299H70.1761V38.0884Z" fill="white"></path><path d="M70.1761 46.9712H65.7346V55.8542H70.1761V46.9712Z" fill="white"></path><path d="M70.1761 55.8516H65.7346V64.7346H70.1761V55.8516Z" fill="white"></path><path d="M70.1761 69.1758H65.7346V82.5003H70.1761V69.1758Z" fill="white"></path><path d="M70.1761 82.501H65.7346V86.9425H70.1761V82.501Z" fill="white"></path><path d="M70.1761 95.8228H65.7346V100.264H70.1761V95.8228Z" fill="white"></path><path d="M70.1761 104.706H65.7346V109.148H70.1761V104.706Z" fill="white"></path><path d="M70.1761 113.588H65.7346V118.03H70.1761V113.588Z" fill="white"></path><path d="M74.6178 29.2051H70.1763V33.6466H74.6178V29.2051Z" fill="white"></path><path d="M74.6178 33.6465H70.1763V38.088H74.6178V33.6465Z" fill="white"></path><path d="M74.6178 42.5298H70.1763V51.4128H74.6178V42.5298Z" fill="white"></path><path d="M74.6178 60.2935H70.1763V64.735H74.6178V60.2935Z" fill="white"></path><path d="M74.6178 69.1758H70.1763V73.6173H74.6178V69.1758Z" fill="white"></path><path d="M74.6178 78.0591H70.1763V82.5006H74.6178V78.0591Z" fill="white"></path><path d="M74.6178 86.9424H70.1763V91.3839H74.6178V86.9424Z" fill="white"></path><path d="M74.6178 95.8228H70.1763V109.147H74.6178V95.8228Z" fill="white"></path><path d="M74.6178 109.147H70.1763V118.03H74.6178V109.147Z" fill="white"></path><path d="M79.0592 15.8828H74.6177V20.3243H79.0592V15.8828Z" fill="white"></path><path d="M79.0592 24.7632H74.6177V29.2047H79.0592V24.7632Z" fill="white"></path><path d="M79.0592 38.0884H74.6177V42.5299H79.0592V38.0884Z" fill="white"></path><path d="M79.0592 46.9712H74.6177V55.8542H79.0592V46.9712Z" fill="white"></path><path d="M79.0592 64.7349H74.6177V78.0594H79.0592V64.7349Z" fill="white"></path><path d="M79.0592 95.8228H74.6177V104.706H79.0592V95.8228Z" fill="white"></path><path d="M83.5008 7H79.0593V11.4415H83.5008V7Z" fill="white"></path><path d="M83.5008 15.8828H79.0593V33.6488H83.5008V15.8828Z" fill="white"></path><path d="M83.5008 33.6465H79.0593V38.088H83.5008V33.6465Z" fill="white"></path><path d="M83.5008 42.5298H79.0593V46.9713H83.5008V42.5298Z" fill="white"></path><path d="M83.5008 51.4126H79.0593V55.8541H83.5008V51.4126Z" fill="white"></path><path d="M83.5008 55.8516H79.0593V60.2931H83.5008V55.8516Z" fill="white"></path><path d="M83.5008 73.6177H79.0593V82.5007H83.5008V73.6177Z" fill="white"></path><path d="M83.5008 82.501H79.0593V95.8255H83.5008V82.501Z" fill="white"></path><path d="M83.5008 95.8228H79.0593V100.264H83.5008V95.8228Z" fill="white"></path><path d="M83.5008 104.706H79.0593V109.148H83.5008V104.706Z" fill="white"></path><path d="M83.5008 109.147H79.0593V118.03H83.5008V109.147Z" fill="white"></path><path d="M87.942 51.4126H83.5005V55.8541H87.942V51.4126Z" fill="white"></path><path d="M87.942 55.8516H83.5005V64.7346H87.942V55.8516Z" fill="white"></path><path d="M87.942 78.0591H83.5005V82.5006H87.942V78.0591Z" fill="white"></path><path d="M87.942 95.8228H83.5005V109.147H87.942V95.8228Z" fill="white"></path><path d="M87.942 109.147H83.5005V113.589H87.942V109.147Z" fill="white"></path><path d="M92.3836 7H87.9421V33.6466H92.3836V7Z" fill="white"></path><path d="M92.3836 33.6465H87.9421V38.088H92.3836V33.6465Z" fill="white"></path><path d="M92.3836 46.9712H87.9421V55.8542H92.3836V46.9712Z" fill="white"></path><path d="M92.3836 60.2935H87.9421V69.1765H92.3836V60.2935Z" fill="white"></path><path d="M92.3836 73.6177H87.9421V82.5007H92.3836V73.6177Z" fill="white"></path><path d="M92.3836 86.9424H87.9421V91.3839H92.3836V86.9424Z" fill="white"></path><path d="M92.3836 95.8228H87.9421V100.264H92.3836V95.8228Z" fill="white"></path><path d="M92.3836 109.147H87.9421V118.03H92.3836V109.147Z" fill="white"></path><path d="M96.8228 7H92.3813V11.4415H96.8228V7Z" fill="white"></path><path d="M96.8228 33.6465H92.3813V38.088H96.8228V33.6465Z" fill="white"></path><path d="M96.8228 42.5298H92.3813V51.4128H96.8228V42.5298Z" fill="white"></path><path d="M96.8228 55.8516H92.3813V60.2931H96.8228V55.8516Z" fill="white"></path><path d="M96.8228 64.7349H92.3813V69.1764H96.8228V64.7349Z" fill="white"></path><path d="M96.8228 73.6177H92.3813V82.5007H96.8228V73.6177Z" fill="white"></path><path d="M96.8228 95.8228H92.3813V100.264H96.8228V95.8228Z" fill="white"></path><path d="M96.8228 104.706H92.3813V109.148H96.8228V104.706Z" fill="white"></path><path d="M96.8228 109.147H92.3813V113.589H96.8228V109.147Z" fill="white"></path><path d="M101.264 7H96.8228V11.4415H101.264V7Z" fill="white"></path><path d="M101.264 15.8828H96.8228V29.2073H101.264V15.8828Z" fill="white"></path><path d="M101.264 33.6465H96.8228V38.088H101.264V33.6465Z" fill="white"></path><path d="M101.264 73.6177H96.8228V82.5007H101.264V73.6177Z" fill="white"></path><path d="M101.264 82.501H96.8228V95.8255H101.264V82.501Z" fill="white"></path><path d="M101.264 95.8228H96.8228V109.147H101.264V95.8228Z" fill="white"></path><path d="M101.264 109.147H96.8228V113.589H101.264V109.147Z" fill="white"></path><path d="M105.706 7H101.264V11.4415H105.706V7Z" fill="white"></path><path d="M105.706 15.8828H101.264V29.2073H105.706V15.8828Z" fill="white"></path><path d="M105.706 33.6465H101.264V38.088H105.706V33.6465Z" fill="white"></path><path d="M105.706 46.9712H101.264V55.8542H105.706V46.9712Z" fill="white"></path><path d="M105.706 55.8516H101.264V60.2931H105.706V55.8516Z" fill="white"></path><path d="M105.706 69.1758H101.264V78.0588H105.706V69.1758Z" fill="white"></path><path d="M105.706 104.706H101.264V109.148H105.706V104.706Z" fill="white"></path><path d="M105.706 113.588H101.264V118.03H105.706V113.588Z" fill="white"></path><path d="M110.147 7H105.706V11.4415H110.147V7Z" fill="white"></path><path d="M110.147 15.8828H105.706V29.2073H110.147V15.8828Z" fill="white"></path><path d="M110.147 33.6465H105.706V38.088H110.147V33.6465Z" fill="white"></path><path d="M110.147 42.5298H105.706V46.9713H110.147V42.5298Z" fill="white"></path><path d="M110.147 51.4126H105.706V55.8541H110.147V51.4126Z" fill="white"></path><path d="M110.147 69.1758H105.706V73.6173H110.147V69.1758Z" fill="white"></path><path d="M110.147 100.265H105.706V104.706H110.147V100.265Z" fill="white"></path><path d="M114.589 7H110.147V11.4415H114.589V7Z" fill="white"></path><path d="M114.589 33.6465H110.147V38.088H114.589V33.6465Z" fill="white"></path><path d="M114.589 46.9712H110.147V51.4127H114.589V46.9712Z" fill="white"></path><path d="M114.589 64.7349H110.147V69.1764H114.589V64.7349Z" fill="white"></path><path d="M114.589 78.0591H110.147V82.5006H114.589V78.0591Z" fill="white"></path><path d="M114.589 95.8228H110.147V109.147H114.589V95.8228Z" fill="white"></path><path d="M119.03 7H114.589V33.6466H119.03V7Z" fill="white"></path><path d="M119.03 33.6465H114.589V38.088H119.03V33.6465Z" fill="white"></path><path d="M119.03 42.5298H114.589V55.8543H119.03V42.5298Z" fill="white"></path><path d="M119.03 60.2935H114.589V73.618H119.03V60.2935Z" fill="white"></path><path d="M119.03 82.501H114.589V91.384H119.03V82.501Z" fill="white"></path><path d="M119.03 95.8228H114.589V100.264H119.03V95.8228Z" fill="white"></path><path d="M119.03 104.706H114.589V109.148H119.03V104.706Z" fill="white"></path><path d="M66.0303 60.0303H61.0303V65.0303H66.0303V60.0303Z" fill="white"></path></svg>