<svg xmlns="http://www.w3.org/2000/svg" width="89" height="90" viewBox="0 0 89 90" fill="none"><path d="M88.4733 43.9599C88.4733 36.6834 83.9116 30.487 77.5327 28.1562V0.768101C77.5327 0.635456 77.4269 0.528076 77.2962 0.528076C77.2651 0.528076 77.2402 0.534393 77.2091 0.547025L1.01704 30.0322C0.929909 30.0638 0.867676 30.1522 0.867676 30.2533V89.0846C0.867676 89.2172 0.973472 89.3246 1.10416 89.3246C1.13528 89.3246 1.16017 89.3183 1.19129 89.3057L77.4954 59.7826C83.8929 57.4582 88.4733 51.2554 88.4733 43.9599Z" fill="#22487F"></path><path d="M34.8843 55.7656C34.8843 55.8919 34.7848 55.993 34.6603 55.993H29.2771C29.1527 55.993 29.0469 55.8919 29.0469 55.7656V32.2684C29.0469 32.1421 29.1464 32.041 29.2771 32.041H34.6603C34.7848 32.041 34.8843 32.1421 34.8843 32.2684V55.7656Z" fill="white"></path><path d="M26.4765 55.7274L20.8196 45.6527C23.2155 44.5094 24.8834 42.0397 24.8834 39.1783C24.8834 35.2369 21.7282 32.0344 17.8448 32.0344H6.57438C6.44991 32.0344 6.35034 32.1355 6.35034 32.2618V55.7716C6.35034 55.8979 6.44991 55.999 6.57438 55.999H11.5468C11.6713 55.999 11.7771 55.8979 11.7771 55.7716V46.777H15.1003C15.1626 46.777 15.2061 46.8149 15.2248 46.8717L20.2221 55.9169C20.2408 55.9674 20.2843 55.999 20.3404 55.999H26.3147C26.4205 55.999 26.5014 55.9169 26.5014 55.8095C26.4952 55.7779 26.489 55.7527 26.4765 55.7274ZM16.3201 41.667H11.9015C11.8269 41.667 11.7771 41.6102 11.7771 41.5344V36.8286C11.7771 36.7591 11.8331 36.7023 11.9015 36.7023H16.3201C17.6706 36.7023 18.7659 37.814 18.7659 39.1783C18.7721 40.5553 17.6706 41.667 16.3201 41.667Z" fill="white"></path><path d="M71.9316 31.3964C65.0922 31.3964 59.5535 37.0243 59.5535 43.9598C59.5535 50.8952 65.0984 56.5232 71.9316 56.5232C78.7648 56.5232 84.3098 50.8952 84.3098 43.9598C84.3098 37.0243 78.7648 31.3964 71.9316 31.3964ZM71.9316 50.4341C68.4092 50.4341 65.5527 47.5349 65.5527 43.9598C65.5527 40.3847 68.4092 37.4854 71.9316 37.4854C75.454 37.4854 78.3105 40.3847 78.3105 43.9598C78.3105 47.5349 75.454 50.4341 71.9316 50.4341Z" fill="white"></path><path d="M54.749 43.3472C55.7945 42.147 56.4355 40.5743 56.4355 38.8499C56.4355 35.0853 53.4296 32.0344 49.7268 32.0344H39.4334C39.3089 32.0344 39.2093 32.1355 39.2093 32.2618H39.2031V55.759H39.2093C39.2093 55.8853 39.3089 55.9864 39.4334 55.9864H50.7038C54.5934 55.9864 57.7424 52.7902 57.7424 48.8425C57.7486 46.638 56.3048 44.661 54.749 43.3472ZM44.4618 41.0985V36.6075C44.4618 36.538 44.5178 36.4875 44.5863 36.4875H48.7124C50.0006 36.4875 51.0461 37.5487 51.0461 38.8562C51.0461 40.1637 50.0006 41.2312 48.7124 41.2312H44.5863C44.5178 41.2248 44.4618 41.168 44.4618 41.0985ZM49.1791 51.3438H44.8726C44.8041 51.3438 44.7419 51.2869 44.7419 51.2175V46.5054C44.7419 46.4359 44.7979 46.3791 44.8726 46.3791H49.1791C50.5296 46.3791 51.6249 47.4908 51.6249 48.8614C51.6249 50.2321 50.5296 51.3438 49.1791 51.3438Z" fill="white"></path><path d="M79.4248 63.3829H78.4228V66.1434H78.012V63.3829H77.0225V63.0544H79.431V63.3829H79.4248Z" fill="#22487F"></path><path d="M81.3665 65.5624H81.3789L82.3498 63.0546H82.8602V66.1435H82.4494V63.8315H82.437L81.5159 66.1498H81.2296L80.2836 63.7557H80.2711V66.1498H79.8604V63.0609H80.4018L81.3665 65.5624Z" fill="#22487F"></path></svg>