<svg xmlns="http://www.w3.org/2000/svg" width="71" height="71" viewBox="0 0 71 71" fill="none"><g clip-path="url(#clip0_174_4539)"><path d="M71.0001 46.3043C70.7815 47.0507 70.6019 47.8118 70.3352 48.5415C69.1813 51.6917 67.0958 54.1381 64.3453 55.9697C58.5222 59.8458 52.6861 63.709 46.7648 67.4332C42.8605 69.8889 38.6117 70.1945 34.2536 68.6722C30.5308 67.3721 26.8117 66.0554 23.1 64.7201C22.661 64.5627 22.3962 64.6257 22.0739 64.9535C20.2773 66.7832 18.4604 68.5944 16.6416 70.4019C16.4175 70.6241 16.1545 70.863 15.8655 70.9482C15.3988 71.0853 14.9431 70.9686 14.6542 70.513C14.3579 70.0445 14.406 69.5926 14.7505 69.1704C14.8672 69.0278 15.0061 68.9037 15.1358 68.7722C17.0805 66.8276 19.0549 64.9127 20.9533 62.9256C21.6535 62.1941 22.2999 62.0904 23.2259 62.4256C27.0876 63.8201 30.9734 65.1424 34.8444 66.5147C38.8895 67.9481 42.6919 67.4925 46.2851 65.1516C51.6637 61.6477 57.0516 58.1605 62.4284 54.6529C64.9362 53.0177 66.9809 50.962 68.133 48.1378C68.3237 47.6711 68.4552 47.1822 68.6497 46.5933C67.2421 46.6692 65.9678 46.3951 64.6676 47.1822C59.0204 50.6009 53.3066 53.9084 47.626 57.2753C47.0537 57.6142 46.5222 57.7124 45.8591 57.5772C39.3933 56.253 32.9219 54.9585 26.4505 53.6603C24.4613 53.2621 23.1537 51.6787 23.3389 49.8694C23.5408 47.8896 25.0318 46.5858 27.1154 46.5858C32.4533 46.5821 37.793 46.5914 43.1309 46.5803C44.82 46.5766 45.935 45.0395 45.3238 43.5653C44.9553 42.6745 44.2644 42.1782 43.2883 42.1541C42.4104 42.1319 41.5325 42.1486 40.6546 42.1486C33.3516 42.1486 26.0486 42.1634 18.7474 42.1393C16.9305 42.1338 15.4321 42.7393 14.1523 44.0246C10.222 47.9711 6.26957 51.8917 2.32451 55.8215C2.16152 55.9845 2.00409 56.1586 1.82258 56.2993C1.3262 56.6845 0.724257 56.6475 0.316786 56.2289C-0.0906854 55.8085 -0.107355 55.2141 0.287152 54.7215C0.401984 54.577 0.540895 54.4529 0.670545 54.3214C4.60264 50.3786 8.5477 46.447 12.4613 42.4856C14.1634 40.7633 16.1785 39.9207 18.5993 39.9244C26.8024 39.9429 35.0074 39.9225 43.2105 39.9392C45.0923 39.9429 46.5018 40.8244 47.2871 42.5375C48.0613 44.2265 47.8001 45.8395 46.6111 47.26C45.7128 48.3322 44.5144 48.8045 43.1198 48.8045C37.9208 48.8008 32.72 48.8045 27.521 48.8045C27.3358 48.8045 27.1506 48.7989 26.9673 48.8063C26.1949 48.8397 25.667 49.3101 25.6059 50.0119C25.5448 50.7231 25.9597 51.2824 26.7265 51.4417C29.1898 51.9509 31.655 52.4473 34.1221 52.9417C37.969 53.7121 41.8177 54.4677 45.6609 55.2548C46.1721 55.3604 46.5814 55.2993 47.0315 55.0326C52.8157 51.6157 58.6055 48.21 64.4064 44.8209C64.8065 44.5876 65.3455 44.5857 65.7381 44.345C66.0456 44.1561 66.2253 43.7616 66.3901 43.369C65.0028 43.3486 63.6823 42.9912 62.4358 43.8931C61.2245 44.7691 59.8761 45.4543 58.5852 46.2192C57.8332 46.6655 57.1849 46.5729 56.8367 45.984C56.4811 45.3839 56.6997 44.7932 57.4591 44.3357C59.0797 43.3579 60.704 42.3838 62.3265 41.4097C62.4061 41.3615 62.4802 41.2837 62.5636 41.2708C63.9897 41.0633 63.7841 39.8096 64.1768 38.8595C62.6154 38.7928 61.1671 38.6688 59.8335 39.6818C58.7556 40.5003 57.5146 41.1059 56.3422 41.7986C55.6032 42.2356 54.9383 42.1245 54.6031 41.5245C54.2734 40.9318 54.4882 40.3503 55.2032 39.9188C56.8238 38.9429 58.437 37.9484 60.0798 37.0094C60.4781 36.7816 60.9781 36.6446 61.4375 36.6242C62.7062 36.5724 63.9786 36.5983 65.2492 36.6094C66.2049 36.6168 66.6698 37.1094 66.529 38.0632C66.3845 39.0373 66.1456 39.9985 65.9308 41.043C66.4197 41.043 66.9383 41.0374 67.4588 41.043C68.4163 41.0578 68.8534 41.5263 68.759 42.4893C68.6997 43.1005 68.5719 43.7061 68.47 44.3413C69.3702 44.458 70.3889 44.0802 71.0019 45.0617V46.3099L71.0001 46.3043Z" fill="white"></path><path d="M21.4942 0C22.6722 0.442616 23.8279 0.964865 25.0337 1.31118C27.4692 2.01122 29.9233 2.65014 32.3885 3.24091C33.2553 3.44833 34.1999 3.33351 35.0612 3.55204C38.7729 4.48912 41.2899 6.81702 42.7161 10.3487C42.7902 10.5302 42.8476 10.7191 42.9105 10.895C42.9828 10.882 43.0198 10.8858 43.0254 10.8728C44.683 7.67447 47.6928 6.35404 50.8581 5.26509C52.725 4.62432 54.6346 4.19837 56.6275 4.28726C56.8572 4.29837 57.0905 4.30208 57.3184 4.33726C58.6815 4.54653 58.8816 4.92804 58.6964 6.30774C58.3148 9.14122 57.9648 11.9803 57.6962 14.8267C57.4684 17.2342 56.3923 19.0806 54.3735 20.3677C52.2213 21.7419 49.819 22.2938 47.302 22.1475C44.9553 22.0104 43.4921 20.5733 42.5938 18.4936C42.4753 18.2195 42.3845 17.9343 42.2753 17.6417C41.7826 18.3047 41.3325 18.964 40.8269 19.5807C40.1231 20.44 39.2822 21.0048 38.1024 21.1585C35.4649 21.5011 32.8405 21.9548 30.1937 21.2807C25.4374 20.0696 22.4462 17.0046 20.9404 12.4136C19.731 8.72823 19.5402 4.94285 19.9829 1.11858C20.0292 0.725964 20.4274 0.372242 20.6626 0.00185195C20.9404 0.00185195 21.2164 0.00185195 21.4942 0.00185195V0ZM38.9247 18.4176C40.4009 16.8564 41.1936 15.0897 41.0047 13.0303C40.6472 9.10603 37.4708 5.91327 33.5369 5.58918C30.7938 5.36324 28.186 4.63543 25.5856 3.83909C24.4225 3.48352 23.2741 3.07423 22.0702 2.67421C21.9239 5.24101 22.0351 7.72263 22.6166 10.1635C23.7501 14.9341 26.3302 18.8121 32.4274 19.3306C33.7591 19.4436 35.1093 19.3288 36.4521 19.3177L36.491 19.0936C36.328 18.9065 36.1688 18.7158 36.0021 18.5306C33.4313 15.6564 30.8605 12.7821 28.2879 9.90978C28.1656 9.77273 28.0304 9.64124 27.9267 9.49124C27.5785 8.99121 27.6396 8.35784 28.0879 7.99671C28.5676 7.61151 29.0713 7.63003 29.5381 8.01709C29.7659 8.20784 29.953 8.45044 30.153 8.67268C33.0572 11.8988 35.9595 15.123 38.9247 18.4176ZM45.122 18.5232C45.3369 18.2361 45.4776 18.0565 45.611 17.8713C47.0353 15.8823 48.4522 13.8878 49.8913 11.9099C50.0857 11.6432 50.3543 11.3673 50.6506 11.2506C51.1118 11.0691 51.573 11.208 51.8694 11.6469C52.1972 12.1303 52.1083 12.5988 51.7805 13.0562C50.3154 15.1008 48.8559 17.149 47.3946 19.1973C47.2575 19.3899 47.1297 19.5918 46.9556 19.8492C47.1742 19.8992 47.2816 19.9436 47.3909 19.9455C49.3912 19.9955 51.3044 19.6473 53.0269 18.5806C54.6124 17.6009 55.4384 16.1879 55.4921 14.2822C55.5329 12.8081 55.707 11.3376 55.8663 9.87088C55.9848 8.77824 56.1719 7.69299 56.3367 6.56145C56.146 6.55219 56.0107 6.52997 55.8792 6.53923C52.951 6.73183 50.2061 7.54854 47.6854 9.04677C46.2055 9.92459 45.1665 11.208 44.6201 12.847C43.9811 14.7674 44.0015 16.6453 45.1257 18.5213L45.122 18.5232Z" fill="white"></path><path d="M34.3163 33.2573C37.339 33.3277 39.8116 34.4648 41.7156 36.7797C42.2805 37.4668 42.2824 38.0909 41.7453 38.5483C41.2137 39.0002 40.5914 38.8743 40.0209 38.2002C36.9612 34.5815 31.7919 34.5852 28.7488 38.2076C28.1876 38.8761 27.5579 39.0002 27.0226 38.5483C26.5059 38.1131 26.4947 37.4872 27.0226 36.8353C28.9062 34.5 31.3751 33.3573 34.3163 33.2573Z" fill="white"></path><path d="M41.0471 27.6904C41.0471 25.9348 41.0434 24.1791 41.0471 22.4235C41.0489 21.5919 41.4527 21.0993 42.1194 21.0771C42.8103 21.0549 43.2604 21.5716 43.2622 22.4235C43.2659 25.957 43.2659 29.4924 43.2622 33.0277C43.2622 33.8796 42.8084 34.3982 42.1194 34.3741C41.4545 34.3519 41.0508 33.8555 41.0489 33.0259C41.0434 31.248 41.0489 29.4683 41.0489 27.6904H41.0471Z" fill="white"></path><path d="M44.9201 35.5C47.4538 35.663 49.5097 37.052 51.1396 39.1761C51.447 39.5762 51.723 40.0077 51.9619 40.4503C52.2916 41.0633 52.1045 41.6911 51.5507 41.9967C51.0155 42.2911 50.471 42.1115 50.0561 41.5614C49.4893 40.8114 48.9503 40.0262 48.291 39.3613C47.2871 38.3502 46.0332 37.7909 44.5904 37.7112C43.7292 37.6631 43.2346 37.226 43.2698 36.5427C43.305 35.8556 43.8255 35.4741 44.9182 35.5H44.9201Z" fill="white"></path><path d="M50.6651 42.7041C52.8803 42.7429 54.8584 44.7134 54.9065 46.932C54.9232 47.6839 54.5139 48.1969 53.8675 48.2377C53.2285 48.2766 52.7747 47.8228 52.6914 47.0617C52.5543 45.8042 51.8061 45.0523 50.5596 44.9171C49.7891 44.8338 49.339 44.3949 49.3723 43.7541C49.4038 43.1041 49.915 42.6892 50.6651 42.7022V42.7041Z" fill="white"></path></g><defs><clipPath id="clip0_174_4539"><rect width="71" height="71" fill="white"></rect></clipPath></defs></svg>