<svg xmlns="http://www.w3.org/2000/svg" width="70" height="70" viewBox="0 0 70 70" fill="none"><g clip-path="url(#clip0_174_4646)"><path d="M36.043 33.7425H51.7818V31.4495C49.2443 30.9567 47.2635 29.6644 46.0201 27.3732C44.7749 25.0802 44.7692 22.7176 45.8 20.2591C45.326 20.2591 44.9329 20.2591 44.5416 20.2591C41.3024 20.2591 38.0632 20.2835 34.8259 20.2496C31.9968 20.2195 29.7038 18.1203 29.3201 15.2855C28.957 12.6144 30.7102 9.93013 33.3963 9.24355C34.1544 9.0498 34.493 8.6924 34.8034 8.03026C37.4067 2.49053 44.2651 0.553036 49.4324 3.86747C49.6261 3.99162 49.8199 4.11389 50.0268 4.24368C51.4414 1.35061 53.6798 -0.229486 56.8946 0.0301008C59.7124 0.259591 61.7251 1.81147 62.6657 4.49574C63.751 7.59197 62.7334 10.1408 60.3162 12.2081C60.4836 12.7969 60.6492 13.3762 60.7714 13.8089C61.8474 13.7261 62.9008 13.4778 63.9053 13.6057C65.9349 13.8634 67.3608 15.1538 68.3277 16.875C70.3517 20.4773 70.3837 24.1679 68.5101 27.8379C67.5771 29.6663 66.4673 30.524 64.242 31.4288V33.7557H69.8739C69.904 45.217 65.8597 54.8612 56.887 61.9302C45.1266 71.1945 32.1717 72.4868 18.7786 65.7902C6.59682 59.7012 -0.417666 46.9382 0.0187401 33.8121H2.24592C2.24592 33.4886 2.24592 33.2403 2.24592 32.992C2.24592 29.4255 2.25721 25.8571 2.23275 22.2906C2.22899 21.7677 2.38512 21.5777 2.89677 21.4554C5.67321 20.7914 8.44026 20.0804 11.2487 19.375V6.78876H27.0045V19.3637C28.5752 19.7606 30.1101 20.1481 31.6451 20.5337C32.9166 20.8535 34.1845 21.2015 35.4655 21.4799C35.9339 21.5814 36.0543 21.7752 36.0505 22.2285C36.0336 25.795 36.0411 29.3634 36.0411 32.9299C36.0411 33.1838 36.0411 33.4378 36.0411 33.7406L36.043 33.7425ZM38.1516 36.0562C38.8213 38.9041 36.6713 40.6103 34.3538 40.5727C27.9713 40.4673 21.587 40.5369 15.2027 40.5369C14.9675 40.5369 14.7287 40.5125 14.501 40.5557C13.8953 40.6667 13.5285 41.041 13.5285 41.6637C13.5285 42.2863 13.8972 42.6588 14.5029 42.7716C14.708 42.8111 14.9243 42.7885 15.135 42.7885C18.6789 42.7885 22.2228 42.7885 25.7667 42.7885C27.1249 42.7885 28.1801 43.3491 28.8498 44.5323C30.1346 46.8065 28.4886 49.5359 25.8156 49.5416C19.4087 49.5566 13.0018 49.5472 6.59494 49.5472C6.34475 49.5472 6.09457 49.5472 5.62995 49.5472C6.5291 50.9862 7.353 52.2823 8.14869 53.5952C8.37442 53.9677 8.64906 54.0674 9.06665 54.0636C10.8273 54.0411 12.5861 54.0542 14.3468 54.0542C22.678 54.0542 31.0093 54.0486 39.3424 54.058C41.3137 54.0599 42.8186 55.5628 42.8035 57.4646C42.7885 59.3306 41.2893 60.7866 39.3499 60.811C38.6689 60.8204 37.988 60.811 37.3089 60.811C35.4316 60.811 33.5543 60.8148 31.677 60.811C31.0619 60.811 30.6199 61.0744 30.46 61.6688C30.3151 62.203 30.5202 62.6639 31.0187 62.9065C31.2782 63.0325 31.6055 63.0589 31.9028 63.0589C35.4693 63.0683 39.0376 63.0382 42.6041 63.089C43.2757 63.0984 44.0488 63.2677 44.583 63.6382C45.2433 64.0935 45.7022 64.8384 46.3061 65.5231C52.3161 63.262 57.3479 59.4623 61.3621 54.0523H60.4366C56.5635 54.0523 52.6923 54.0523 48.8192 54.0523C46.5995 54.0523 45.0551 52.6528 45.0646 50.6551C45.074 48.6894 46.6127 47.2975 48.7853 47.2956C50.1698 47.2937 51.5542 47.3106 52.9387 47.2862C53.6083 47.2749 54.0636 46.7877 54.0673 46.1763C54.0711 45.5631 53.6177 45.1004 52.9519 45.0496C52.7656 45.0345 52.5756 45.0439 52.3894 45.0439C49.9478 45.0439 47.5081 45.0609 45.0664 45.0364C43.0405 45.0176 41.5093 43.3152 41.6937 41.342C41.8592 39.5757 43.3265 38.2872 45.215 38.2872C52.3255 38.2815 59.4378 38.2853 66.5482 38.2853C66.8228 38.2853 67.0956 38.2853 67.4135 38.2853C67.4699 37.4952 67.5207 36.7898 67.5734 36.0581H38.1573L38.1516 36.0562ZM49.5659 14.5952C49.6148 13.0414 50.1472 11.7717 51.1818 10.7352C51.4602 10.4568 51.4978 10.233 51.3849 9.87935C50.4312 6.87717 47.4949 4.62742 44.3328 4.49763C40.4804 4.33962 37.3033 6.71728 36.2762 10.5772C36.1201 11.1641 35.9282 11.3898 35.2943 11.2883C34.3463 11.1359 33.4828 11.4312 32.7455 12.0482C31.6582 12.9586 31.2594 14.4184 31.7222 15.7407C32.1962 17.097 33.4584 17.998 34.9632 18.0037C38.9022 18.0149 42.843 18.0187 46.782 17.9905C47.1582 17.9886 47.5946 17.8099 47.8956 17.5767C49.7465 16.132 51.8194 15.4379 54.1369 15.8912C55.3276 16.1245 56.46 16.6568 57.6714 17.0707C58.8208 15.9138 58.8979 14.4673 58.1135 12.9568C57.4965 11.7679 56.1158 11.0738 54.8066 11.277C52.9312 11.5685 51.9944 12.7837 51.7668 14.5989H49.5659V14.5952ZM24.719 33.7613V13.5455H13.5643V33.7613H24.719ZM2.26849 36.0299C2.42274 39.777 3.1413 43.2927 4.4524 46.6917C4.63299 47.1583 4.85495 47.3106 5.35343 47.3087C12.0632 47.2899 18.7729 47.2975 25.4827 47.2956C25.6708 47.2956 25.8627 47.3144 26.0451 47.2786C26.6489 47.1601 27.0176 46.7896 27.0158 46.1688C27.0158 45.5462 26.6471 45.1737 26.0414 45.0609C25.8363 45.0232 25.62 45.0439 25.4093 45.0439C21.8428 45.0439 18.2782 45.0533 14.7117 45.0383C12.6632 45.0289 11.1302 43.3961 11.2675 41.4116C11.3916 39.6208 12.8777 38.2872 14.7907 38.2853C21.3124 38.2796 27.834 38.2834 34.3557 38.2815C34.5908 38.2815 34.8297 38.306 35.0573 38.2627C35.6611 38.1498 36.0298 37.7736 36.026 37.151C36.0242 36.5284 35.6555 36.1597 35.0498 36.0449C34.8673 36.0111 34.6754 36.028 34.4873 36.028C24.0004 36.028 13.5135 36.028 3.02844 36.028H2.26661L2.26849 36.0299ZM43.8701 66.2416C43.7027 65.5118 43.1985 65.3143 42.5157 65.3162C38.9266 65.3256 35.3376 65.3256 31.7466 65.318C29.6925 65.3143 28.1726 63.8847 28.1594 61.966C28.1463 60.0153 29.6737 58.5669 31.7636 58.5613C34.2277 58.5556 36.6901 58.5613 39.1543 58.5575C40.0327 58.5575 40.5538 58.1192 40.5444 57.4176C40.535 56.7178 40.0195 56.3059 39.1279 56.3059C29.7207 56.304 20.3116 56.3059 10.9045 56.3059C10.737 56.3059 10.5696 56.3416 10.3571 56.3642C19.7041 67.201 33.9343 69.4244 43.872 66.2379L43.8701 66.2416ZM67.2348 40.535H66.4786C59.4415 40.535 52.4063 40.535 45.3693 40.535C44.4683 40.535 43.9547 40.9319 43.934 41.6279C43.9115 42.3484 44.4476 42.7867 45.373 42.7867C47.8598 42.7904 50.3447 42.7791 52.8315 42.7904C54.8122 42.7998 56.319 44.2727 56.3171 46.1688C56.3171 48.0649 54.8085 49.5284 52.8239 49.5434C51.4395 49.5547 50.0569 49.5416 48.6724 49.5472C47.8316 49.551 47.3312 49.9629 47.3124 50.6439C47.2936 51.3474 47.8147 51.7969 48.6856 51.7969C53.2359 51.8007 57.7862 51.7913 62.3365 51.8101C62.756 51.8101 62.976 51.6596 63.1416 51.3079C63.9128 49.6808 64.8082 48.1007 65.4421 46.4209C66.1494 44.5492 66.6215 42.5873 67.2348 40.5331V40.535ZM64.1912 29.0248C65.2559 28.5677 65.9331 27.8604 66.4052 26.9857C68.0116 24.0193 68.0624 20.9964 66.409 18.0601C64.6577 14.9507 61.5596 14.9921 59.7293 18.0676C59.6334 18.2275 59.4979 18.3893 59.4754 18.5642C59.4434 18.8088 59.4152 19.1172 59.5318 19.3091C61.0273 21.7451 61.236 24.2676 60.1225 26.9048C60.0453 27.0854 60.019 27.4127 60.1225 27.5256C60.636 28.073 61.2022 28.5696 61.7477 29.0831C61.8229 29.0342 61.8982 28.9872 61.9715 28.9383V24.8075H64.1874V29.0267L64.1912 29.0248ZM51.7593 29.1095C51.9474 28.1614 51.8495 27.4146 50.8526 26.9519C50.1829 26.6415 49.6036 26.1393 48.9433 25.6953C49.3684 25.0558 49.7653 24.4613 50.1754 23.8425C50.7378 24.198 51.2344 24.5121 51.8138 24.8789C51.8138 24.0099 51.8063 23.2838 51.8176 22.5577C51.8213 22.3546 51.8063 22.0837 51.9229 21.9614C52.7224 21.1187 53.5538 20.3061 54.3194 19.5405C54.9044 20.0747 55.4198 20.545 56.0669 21.1356C55.4932 21.6548 54.9458 22.1288 54.4247 22.6311C54.2686 22.7816 54.0861 23.0073 54.0824 23.1992C54.0579 25.1611 54.0673 27.1231 54.0673 29.0944C56.7572 28.6674 58.7361 26.0584 58.5593 23.2481C58.3806 20.3926 55.9578 18.0676 53.0986 18.0055C50.1641 17.9416 47.7112 20.0672 47.3369 22.9998C46.9795 25.7988 48.9151 28.5 51.7593 29.1057V29.1095ZM4.55022 23.3797V33.7425H11.2242V21.7131C8.96884 22.2774 6.75106 22.8305 4.55022 23.3816V23.3797ZM33.765 33.7425V23.3835C31.5397 22.8286 29.3219 22.2737 27.0665 21.7112V33.7425H33.765ZM58.8716 10.3684C60.5288 9.25671 61.2154 7.23833 60.6003 5.35163C59.9645 3.40473 58.1342 2.14253 56.0801 2.23659C54.1614 2.325 52.412 3.77153 51.9981 5.63755C51.9511 5.84823 51.9568 6.12098 52.0546 6.30345C52.5719 7.26655 53.1268 8.20896 53.6949 9.20593C55.5741 8.66418 57.3178 9.13068 58.8697 10.3665L58.8716 10.3684ZM24.7453 9.04039H13.568V11.2093H24.7453V9.04039ZM58.3787 29.3408C57.2482 30.4394 55.7734 31.1485 54.1049 31.4401V33.735H61.917V31.6508C60.6793 30.8419 59.577 30.1233 58.3787 29.3427V29.3408Z" fill="white"></path><path d="M46.7183 7.53166C46.3609 8.15241 46.0035 8.77316 45.6518 9.38451C43.0954 8.5606 41.8821 9.07225 40.5785 11.5045C39.9145 11.3314 39.2411 11.1565 38.5752 10.9815C39.006 7.8947 43.2684 5.40982 46.7202 7.53166H46.7183Z" fill="white"></path><path d="M15.8027 15.7822H17.9678V17.9605H15.8027V15.7822Z" fill="white"></path><path d="M20.3042 17.9566V15.7859H22.4693V17.9566H20.3042Z" fill="white"></path><path d="M17.9846 22.4824H15.812V20.2966H17.9846V22.4824Z" fill="white"></path><path d="M20.3306 20.2722H22.4712V22.4618H20.3306V20.2722Z" fill="white"></path><path d="M17.9679 26.9857H15.8047V24.8206H17.9679V26.9857Z" fill="white"></path><path d="M22.509 24.8093V26.9594H20.3213V24.8093H22.509Z" fill="white"></path><path d="M15.8218 29.2957H17.9737V31.4852H15.8218V29.2957Z" fill="white"></path><path d="M20.3306 29.2844H22.4712V31.474H20.3306V29.2844Z" fill="white"></path><path d="M8.98936 24.8225V26.9632H6.7998V24.8225H8.98936Z" fill="white"></path><path d="M6.76807 31.4646V29.324H8.95762V31.4646H6.76807Z" fill="white"></path><path d="M29.3164 26.9763V24.8149H31.489V26.9763H29.3164Z" fill="white"></path><path d="M29.3203 29.3013H31.4854V31.4795H29.3203V29.3013Z" fill="white"></path></g><defs><clipPath id="clip0_174_4646"><rect width="69.8758" height="70" fill="white"></rect></clipPath></defs></svg>