<svg xmlns="http://www.w3.org/2000/svg" width="48" height="70" viewBox="0 0 48 70" fill="none"><g clip-path="url(#clip0_174_4661)"><path d="M22.9399 69.9999C21.4948 69.6567 20.1099 69.1864 18.945 68.2089C17.5546 67.0427 16.6263 65.5948 16.2339 63.8202C16.1464 63.4251 16.0069 63.1585 15.6173 62.9356C14.3567 62.2165 13.8235 61.0612 13.8263 59.6284C13.8317 56.097 13.7907 52.5642 13.8413 49.0327C13.8727 46.9149 13.0005 45.4329 11.2341 44.2708C3.58329 39.2409 -0.231159 32.0974 0.0108331 22.9481C0.278802 12.8022 7.53447 3.70771 17.3372 0.94189C18.3079 0.668452 19.0284 0.984272 19.2649 1.79091C19.5028 2.60029 19.0749 3.25927 18.1097 3.55732C11.6032 5.56572 6.94658 9.67412 4.31337 15.9495C0.358099 25.3776 3.80341 36.3179 12.429 41.8003C14.3841 43.0431 15.8415 44.5702 16.3966 46.8657C16.4294 47.0024 16.6618 47.1843 16.804 47.187C18.6907 47.2089 20.5788 47.2007 22.5161 47.2007V37.6085C22.1565 37.6085 21.7806 37.603 21.4046 37.6085C15.0567 37.722 9.7247 33.5876 8.26044 27.412C7.82294 25.5649 7.84072 23.7124 8.19892 21.853C8.34521 21.0901 8.77724 20.6608 9.54286 20.5091C12.0421 20.0169 14.4798 20.2001 16.8628 21.1052C17.0104 21.1612 17.1581 21.2145 17.3919 21.3007C17.3126 20.6718 17.2155 20.1044 17.1718 19.5343C16.7862 14.3964 18.7263 10.3495 22.9153 7.37451C23.7384 6.79072 24.1335 6.81122 24.9688 7.36767C29.3972 10.3153 31.586 15.6282 30.5347 20.881C30.5128 20.9903 30.4936 21.0997 30.4622 21.2665C31.2511 21.0286 31.9866 20.7702 32.7386 20.587C34.628 20.1276 36.5284 20.1317 38.4288 20.531C39.0933 20.6704 39.4897 21.0532 39.6538 21.7395C41.3655 28.864 36.1811 36.4751 28.9091 37.4485C27.7456 37.6044 26.5589 37.5962 25.3393 37.6659V47.1405C25.5116 47.1624 25.6634 47.1979 25.8151 47.1979C27.5009 47.202 29.188 47.1938 30.8737 47.2061C31.2347 47.2089 31.4466 47.1487 31.5477 46.7358C32.0659 44.6317 33.3729 43.1511 35.1735 41.9808C41.8946 37.6126 45.3153 31.3727 45.1472 23.3733C44.953 14.1735 38.9196 6.42021 30.1081 3.65166C29.5175 3.46572 28.9911 3.22099 28.8284 2.55927C28.5618 1.47236 29.5175 0.628804 30.6673 0.96103C33.7462 1.85107 36.5311 3.31806 39.0153 5.34013C51.8149 15.754 50.6132 35.5263 36.6364 44.2954C34.8686 45.4042 34.0087 46.904 34.0306 48.9903C34.0661 52.4985 34.021 56.0081 34.0497 59.5177C34.0634 61.0995 33.4796 62.289 32.0782 63.0683C31.9101 63.1612 31.7597 63.3923 31.7132 63.585C30.871 67.0905 28.6931 69.196 25.1534 69.8919C25.0933 69.9042 25.0427 69.9603 24.9866 69.9958H22.9358L22.9399 69.9999ZM10.8212 23.1108C9.75204 29.3247 15.1306 35.019 20.8058 34.7976C20.6294 34.6061 20.4845 34.4421 20.3313 34.2862C19.6245 33.5753 18.9013 32.8808 18.2122 32.1534C17.6216 31.53 17.6298 30.7561 18.1862 30.2011C18.7331 29.6569 19.511 29.6665 20.1427 30.238C20.3956 30.4663 20.6294 30.7179 20.8714 30.9585C21.3909 31.4767 21.9104 31.9948 22.512 32.595C22.1278 26.686 16.5866 22.1921 10.8212 23.1095V23.1108ZM26.9977 34.803C32.502 35.0067 38.1075 29.6692 37.0849 23.1395C31.2374 22.0595 25.5677 27.0183 25.4364 32.662C26.239 31.8185 26.9102 31.0897 27.6075 30.3843C28.3116 29.672 29.1196 29.6145 29.7075 30.2024C30.2886 30.7821 30.2284 31.612 29.5325 32.3093C28.7286 33.1145 27.911 33.9061 26.9977 34.8017V34.803ZM23.9571 10.0351C18.7454 13.7675 18.7181 21.406 22.5352 25.1247C22.5476 24.8636 22.5667 24.6462 22.5667 24.4288C22.5708 23.5415 22.5517 22.6528 22.5735 21.7655C22.5968 20.8427 23.1874 20.2274 23.9817 20.2507C24.7638 20.2739 25.2833 20.8604 25.297 21.771C25.312 22.7499 25.297 23.7288 25.3052 24.7077C25.3052 24.8431 25.3517 24.9784 25.3858 25.1602C29.2727 21.0751 28.987 13.7169 23.9571 10.0351ZM31.2716 49.9925H16.6112V53.93H31.2716V49.9925ZM16.5606 56.7436C16.5606 57.6856 16.5565 58.5907 16.5606 59.4958C16.5661 60.4733 16.7999 60.7071 17.7706 60.7085C20.5706 60.7112 23.372 60.7085 26.172 60.7085C27.561 60.7085 28.9501 60.7058 30.3378 60.7085C30.8259 60.7085 31.2497 60.539 31.2743 60.0208C31.3235 58.938 31.2893 57.8524 31.2893 56.7409H16.5593L16.5606 56.7436ZM19.0052 63.4716C19.5151 65.7083 21.7013 67.3161 24.0938 67.2628C26.3456 67.2136 28.5112 65.5032 28.864 63.4716H19.0052Z" fill="white"></path><path d="M24.4437 0C24.7637 0.380078 25.2176 0.710938 25.3721 1.1498C25.5977 1.78828 25.1643 2.40488 24.523 2.64277C23.9078 2.87109 23.2215 2.6168 22.8906 2.03711C22.5584 1.45605 22.6828 0.773828 23.2078 0.324023C23.3404 0.20918 23.484 0.108008 23.6234 0C23.8969 0 24.1703 0 24.4437 0Z" fill="white"></path></g><defs><clipPath id="clip0_174_4661"><rect width="47.9158" height="70" fill="white"></rect></clipPath></defs></svg>