<svg xmlns="http://www.w3.org/2000/svg" width="62" height="71" viewBox="0 0 62 71" fill="none"><g clip-path="url(#clip0_174_4664)"><path d="M34.6684 27.8102C32.7623 29.6136 31.7608 31.8141 31.3539 34.3108C30.8364 37.4891 31.2255 40.6496 31.5653 43.81C31.6739 44.8135 31.8023 45.815 31.903 46.8204C31.9781 47.569 31.5593 48.1379 30.9075 48.2268C30.1964 48.3236 29.6611 47.895 29.5603 47.091C28.9875 42.5399 28.6359 37.9711 28.6872 33.3825C28.7149 30.8482 28.0216 28.5292 26.8048 26.3326C26.5737 25.9139 26.3287 25.8151 25.8744 25.8981C17.2108 27.4586 9.438 21.9712 8.02962 13.2957C7.70962 11.3263 7.85184 9.3688 8.30221 7.42708C8.45233 6.77721 8.83356 6.41968 9.47553 6.25376C17.7086 4.10859 26.3801 9.57225 27.9189 17.9692C28.2033 19.5218 28.2231 21.1613 28.0828 22.7376C27.986 23.822 28.5174 24.4857 29.0547 25.4438C29.1909 24.5272 29.3035 23.7746 29.4122 23.022C29.8329 20.1144 30.5262 17.2759 31.5178 14.5085C31.6364 14.1786 31.6166 13.7362 31.502 13.3984C29.2384 6.65869 34.226 -0.148172 41.3173 0.00195019C42.1746 0.0197278 42.6704 0.369355 42.9983 1.15355C45.6274 7.43103 41.3094 14.5441 34.5163 15.0655C34.0146 15.1051 33.8013 15.2611 33.6373 15.7233C32.3712 19.2729 31.7233 22.947 31.3559 26.6823C31.3104 27.1465 31.2808 27.6126 31.3203 28.1242C32.1104 26.6941 33.6531 25.9257 34.0403 24.0591C36.1558 13.8685 47.7647 8.93621 56.6377 14.3406C57.3113 14.7515 57.5779 15.2453 57.5285 16.0334C57.1216 22.7277 51.6026 28.7504 44.9696 29.7479C41.3252 30.2971 37.9158 29.6729 34.6704 27.8102H34.6684ZM36.6062 26.0976C38.0324 26.9667 40.0491 27.4902 42.137 27.5632C48.458 27.7884 54.1646 23.0359 55.0397 16.8473C55.1108 16.3436 54.9962 16.1085 54.5518 15.8794C47.9701 12.472 39.6837 15.5653 36.9598 22.465C36.8867 22.6487 36.8472 22.8443 36.7524 23.1722C37.0783 22.9944 37.2482 22.9035 37.4181 22.8087C39.8654 21.4458 42.4551 20.4621 45.2086 19.9307C46.0086 19.7766 46.6091 20.1322 46.7355 20.8077C46.8679 21.5188 46.4827 22.0245 45.6807 22.224C44.7503 22.4551 43.8101 22.6606 42.8955 22.945C40.6496 23.6403 38.5499 24.6378 36.6062 26.0976ZM25.912 20.9223C25.8408 20.2092 25.8092 19.67 25.7322 19.1366C24.6853 11.8103 17.9713 7.29474 11.1308 8.32782C10.6252 8.40485 10.4434 8.63794 10.3684 9.11399C9.47948 14.791 12.5451 20.4384 17.8093 22.7396C20.0651 23.7252 22.4177 24.061 24.9559 23.6581C24.7544 23.3993 24.6181 23.2038 24.4621 23.022C22.4888 20.7267 20.1974 18.8008 17.6592 17.1613C16.871 16.6517 16.6696 15.9959 17.0863 15.3737C17.4814 14.7831 18.1807 14.6567 18.8977 15.1623C20.2448 16.1105 21.588 17.0705 22.8661 18.1095C23.8873 18.9411 24.8078 19.8951 25.912 20.9263V20.9223ZM35.0438 12.5431C39.5454 12.1263 42.7533 6.48289 40.8807 2.42366C36.4581 2.32687 32.8907 6.53425 33.4359 10.4453C33.5998 10.2024 33.7164 9.99299 33.8685 9.81126C34.7218 8.79794 35.5356 7.74708 36.4581 6.80092C37.0704 6.17475 37.8052 6.26166 38.2655 6.83252C38.698 7.36783 38.5953 8.02955 37.9692 8.58066C36.7307 9.67299 35.8556 11.032 35.0438 12.5451V12.5431Z" fill="white"></path><path d="M0.00399992 40.1716C0.00399992 38.4709 -0.00390126 36.7702 0.00399992 35.0695C0.017827 32.8591 1.61189 31.3895 3.82225 31.5376C4.48594 31.5831 5.15162 31.6107 5.81137 31.6917C6.54618 31.7806 6.98667 31.4685 7.21975 30.7949C7.27506 30.6329 7.33037 30.467 7.41333 30.3169C7.81629 29.5801 7.61086 29.0152 6.97087 28.5194C6.40791 28.0828 5.8647 27.6127 5.3452 27.1228C4.00792 25.8626 3.89336 23.7965 5.06471 22.4513C5.59804 21.8389 6.27359 21.7342 6.82074 22.1807C7.34222 22.6034 7.38568 23.2315 6.94321 23.8932C6.46914 24.6004 6.51062 24.9935 7.14272 25.5584C7.69382 26.0503 8.27061 26.5164 8.81777 27.0103C9.94763 28.0275 10.2854 29.4241 9.7501 30.8423C9.59406 31.2571 9.42023 31.6641 9.2306 32.065C8.5669 33.4596 7.45481 34.1272 5.91408 34.0601C5.17532 34.0285 4.44051 33.9495 3.70175 33.904C2.78917 33.8507 2.3704 34.2339 2.36843 35.1485C2.3625 38.5499 2.36053 41.9514 2.36843 45.3528C2.3704 46.2279 2.78917 46.617 3.65632 46.5716C4.41878 46.5301 5.17927 46.4432 5.94174 46.4136C7.48247 46.3543 8.58863 47.0358 9.24443 48.4343C9.43208 48.8353 9.60393 49.2442 9.75998 49.659C10.2775 51.0397 9.94763 52.4323 8.85332 53.4338C8.27061 53.9651 7.65234 54.457 7.06963 54.9883C6.48099 55.5256 6.45729 56.0807 7.02222 56.6496C9.45381 59.097 11.8933 61.5364 14.3407 63.968C14.9353 64.5586 15.4785 64.5251 16.0533 63.891C16.5491 63.3438 17.0152 62.769 17.5051 62.2159C18.5323 61.0564 19.9545 60.7068 21.3945 61.2599C21.8073 61.4179 22.2162 61.5917 22.6152 61.7834C23.9782 62.4391 24.6379 63.5374 24.5846 65.0446C24.5589 65.807 24.47 66.5675 24.4265 67.33C24.3772 68.205 24.7604 68.6297 25.6295 68.6317C29.0547 68.6396 32.4798 68.6416 35.905 68.6317C36.7642 68.6297 37.1435 68.1952 37.0921 67.3142C37.0487 66.5517 36.9637 65.7912 36.9341 65.0288C36.8749 63.5295 37.6116 62.3621 38.9825 61.7419C39.3637 61.57 39.7489 61.4061 40.14 61.2559C41.5524 60.7147 42.9607 61.0485 43.9741 62.1725C44.5015 62.7572 44.9933 63.3774 45.5286 63.9562C46.0422 64.5132 46.5992 64.5428 47.1365 64.0115C49.6037 61.5641 52.0609 59.1068 54.5083 56.6417C55.0693 56.0767 55.0377 55.5256 54.4412 54.9804C53.8782 54.4649 53.2817 53.9849 52.7128 53.4772C51.5809 52.4679 51.2333 51.0575 51.7646 49.6511C51.9207 49.2363 52.0846 48.8234 52.2762 48.4264C52.9261 47.0694 54.0105 46.38 55.5177 46.4195C56.3058 46.4393 57.09 46.538 57.8762 46.5795C58.7078 46.623 59.1443 46.2378 59.1463 45.418C59.1562 41.9672 59.1562 38.5164 59.1463 35.0655C59.1443 34.2458 58.7078 33.8645 57.8742 33.906C57.1355 33.9435 56.4006 34.0285 55.6619 34.0561C54.9093 34.0838 54.4352 33.6887 54.3661 33.0329C54.293 32.3475 54.7078 31.8142 55.4723 31.7273C56.3769 31.6245 57.2895 31.5376 58.1982 31.5416C59.9858 31.5495 61.4772 32.9796 61.4989 34.7692C61.5404 38.4156 61.5404 42.064 61.4989 45.7124C61.4772 47.5593 59.9226 48.9795 58.054 48.9479C57.2421 48.9341 56.4303 48.855 55.6204 48.7839C54.9942 48.7267 54.5755 48.9617 54.3562 49.5583C54.2634 49.8131 54.1567 50.062 54.0402 50.3069C53.7597 50.9034 53.8723 51.3933 54.3878 51.814C54.9211 52.2506 55.4407 52.7069 55.9602 53.1612C57.5898 54.5854 57.7399 56.7128 56.2387 58.2476C53.7577 60.7858 51.2471 63.2944 48.7088 65.7754C47.257 67.1937 45.1375 67.0692 43.7765 65.566C43.2649 64.9991 42.7751 64.4125 42.2812 63.8298C41.8961 63.3774 41.4398 63.2628 40.8926 63.4979C40.5766 63.6342 40.1933 63.6994 39.9583 63.9226C39.6699 64.1991 39.3558 64.5902 39.3203 64.9577C39.2551 65.6352 39.3795 66.3305 39.4368 67.0179C39.6403 69.3961 38.1766 71.0021 35.7845 71.004C32.4087 71.008 29.0329 71.01 25.6552 71.004C23.354 71.0001 21.8843 69.3961 22.0582 67.1048C22.1095 66.4174 22.155 65.728 22.2122 65.0406C22.2577 64.4796 22.0325 64.0905 21.509 63.8752C21.191 63.7448 20.875 63.6085 20.555 63.4782C20.0315 63.2648 19.597 63.3932 19.2335 63.8219C18.7555 64.3848 18.2775 64.9497 17.7876 65.5028C16.3831 67.085 14.2637 67.2134 12.7526 65.7339C10.2163 63.251 7.70567 60.7424 5.22668 58.2041C3.78866 56.7305 3.93286 54.6032 5.48544 53.2244C6.03853 52.7326 6.60148 52.2545 7.16642 51.7765C7.62074 51.3913 7.73135 50.9331 7.50222 50.3879C7.37778 50.0936 7.24346 49.8032 7.12691 49.5049C6.91951 48.9755 6.54025 48.7405 5.97532 48.7859C5.28791 48.8412 4.59854 48.8847 3.91113 48.938C1.62374 49.1079 0.0138764 47.6402 0.00399992 45.3469C-0.00390126 43.6225 0.00399992 41.8961 0.00399992 40.1716Z" fill="white"></path><path d="M30.7731 60.1794C20.782 60.1024 12.3159 52.6733 11.0715 42.783C10.4038 37.4853 11.6641 32.6675 14.8285 28.3594C15.4073 27.5713 16.1914 27.4468 16.7663 28.0256C17.2502 28.5115 17.2364 29.0824 16.6912 29.8172C15.2354 31.7846 14.2438 33.9574 13.6848 36.3416C11.3658 46.22 18.2497 56.219 28.302 57.5602C37.7854 58.8264 46.3996 52.5489 48.0174 43.1524C48.531 40.1638 48.2781 37.2127 47.2451 34.3446C46.8283 33.187 46.9883 32.5372 47.7527 32.2744C48.527 32.0078 49.0584 32.3989 49.4712 33.5386C53.6351 45.0052 46.3127 57.6708 34.2871 59.7745C33.1276 59.978 31.9444 60.0491 30.7731 60.1814V60.1794Z" fill="white"></path></g><defs><clipPath id="clip0_174_4664"><rect width="61.5324" height="71" fill="white"></rect></clipPath></defs></svg>